<svg width="325" height="266" viewBox="0 0 325 266" fill="none" xmlns="http://www.w3.org/2000/svg">
<g clip-path="url(#clip0)">
<path opacity="0.1" d="M215.798 42.8843C201.476 51.9622 182.9 51.3715 166.624 46.6526C150.349 41.9337 135.394 33.5178 119.541 27.5394C106.225 22.524 92.3218 19.2426 78.1721 17.7757C57.9601 15.681 35.3872 18.2306 21.3062 32.9067C5.623 49.2531 6.82549 78.7377 23.7891 93.7364C32.4165 101.368 43.7165 105.113 53.5668 111.071C63.417 117.029 72.5356 126.925 71.7023 138.427C70.9266 149.073 61.8961 157.245 52.5472 162.371C45.3255 166.333 36.4271 170.658 35.5565 178.863C34.7131 186.804 42.1956 193.027 49.3394 196.564C72.6406 208.107 101.355 207.995 124.568 196.272C132.85 192.09 140.464 186.529 149.149 183.27C171.953 174.711 197.083 183.328 221.231 186.478C241.736 189.139 262.561 187.766 282.541 182.435C294.502 179.237 306.506 174.348 314.907 165.24C320.963 158.67 324.73 150.36 328.28 142.154C332.06 133.4 335.692 124.585 339.177 115.708C341.27 110.378 343.326 104.946 343.868 99.2429C344.847 88.9122 340.721 78.7004 335.105 69.9789C321.769 49.2701 299.308 34.7196 274.998 31.0225C250.687 27.3255 224.913 34.5498 206.046 50.3463" fill="#5D2C8F"/>
<path opacity="0.1" d="M45.9791 266C71.3727 266 91.9583 261.966 91.9583 256.99C91.9583 252.014 71.3727 247.98 45.9791 247.98C20.5856 247.98 0 252.014 0 256.99C0 261.966 20.5856 266 45.9791 266Z" fill="#5D2C8F"/>
<path opacity="0.1" d="M182.572 247.182C235.802 247.182 278.954 243.148 278.954 238.172C278.954 233.196 235.802 229.162 182.572 229.162C129.341 229.162 86.1895 233.196 86.1895 238.172C86.1895 243.148 129.341 247.182 182.572 247.182Z" fill="#5D2C8F"/>
<path d="M247.994 174.022C247.994 174.022 261.506 150.034 281.867 143.129C290.406 140.226 297.862 134.77 302.96 127.315C305.371 123.773 307.454 120.017 309.182 116.095" stroke="#535461" stroke-width="2" stroke-miterlimit="10"/>
<path d="M321.966 111.655C319.645 113.909 308.847 116.241 308.847 116.241C308.847 116.241 311.496 105.496 313.816 103.239C314.929 102.156 316.427 101.56 317.978 101.583C319.53 101.607 321.009 102.247 322.089 103.363C323.17 104.479 323.764 105.979 323.741 107.534C323.718 109.089 323.079 110.571 321.966 111.655Z" fill="#5D2C8F"/>
<path d="M315.855 131.104C312.688 131.732 302.356 127.808 302.356 127.808C302.356 127.808 310.408 120.23 313.579 119.599C315.101 119.296 316.681 119.612 317.971 120.477C319.26 121.342 320.155 122.685 320.456 124.211C320.758 125.736 320.443 127.32 319.58 128.612C318.717 129.905 317.377 130.801 315.855 131.104Z" fill="#5D2C8F"/>
<path d="M293.614 152.149C290.566 151.09 283.622 142.477 283.622 142.477C283.622 142.477 294.39 140.005 297.442 141.065C298.874 141.6 300.04 142.675 300.691 144.061C301.342 145.446 301.427 147.032 300.927 148.48C300.427 149.927 299.383 151.121 298.016 151.807C296.65 152.492 295.07 152.615 293.614 152.149Z" fill="#5D2C8F"/>
<path d="M273.209 164.272C270.022 163.746 261.726 156.433 261.726 156.433C261.726 156.433 271.925 152.176 275.113 152.699C275.871 152.824 276.597 153.098 277.249 153.504C277.901 153.911 278.468 154.442 278.915 155.068C279.363 155.694 279.683 156.402 279.858 157.151C280.032 157.901 280.058 158.678 279.933 159.438C279.808 160.197 279.535 160.925 279.129 161.579C278.724 162.233 278.194 162.8 277.569 163.249C276.945 163.697 276.238 164.018 275.49 164.193C274.742 164.368 273.967 164.394 273.209 164.269V164.272Z" fill="#5D2C8F"/>
<path d="M293.353 119.422C293.353 122.661 299.196 132.055 299.196 132.055C299.196 132.055 305.053 122.664 305.053 119.426C305.053 117.871 304.436 116.379 303.339 115.28C302.242 114.18 300.754 113.563 299.203 113.563C297.651 113.563 296.163 114.18 295.066 115.28C293.969 116.379 293.353 117.871 293.353 119.426V119.422Z" fill="#5D2C8F"/>
<path d="M269.666 133.895C270.631 136.984 279.015 144.195 279.015 144.195C279.015 144.195 281.799 133.48 280.834 130.391C280.37 128.905 279.337 127.665 277.961 126.943C276.585 126.221 274.979 126.077 273.497 126.541C272.014 127.006 270.777 128.042 270.057 129.421C269.336 130.8 269.192 132.409 269.656 133.895H269.666Z" fill="#5D2C8F"/>
<path d="M248.563 151.137C249.003 154.349 256.049 162.877 256.049 162.877C256.049 162.877 260.601 152.79 260.171 149.579C260.069 148.816 259.818 148.08 259.432 147.414C259.046 146.748 258.533 146.165 257.922 145.698C257.311 145.231 256.614 144.889 255.872 144.691C255.129 144.494 254.355 144.445 253.593 144.548C252.055 144.755 250.662 145.566 249.721 146.802C249.255 147.414 248.913 148.113 248.716 148.857C248.519 149.601 248.471 150.377 248.573 151.141L248.563 151.137Z" fill="#5D2C8F"/>
<path opacity="0.25" d="M321.966 111.655C319.645 113.909 308.847 116.241 308.847 116.241C308.847 116.241 311.496 105.496 313.816 103.239C314.929 102.156 316.427 101.56 317.978 101.583C319.53 101.607 321.009 102.247 322.089 103.363C323.17 104.479 323.764 105.979 323.741 107.534C323.718 109.089 323.079 110.571 321.966 111.655Z" fill="black"/>
<path opacity="0.25" d="M315.855 131.104C312.688 131.732 302.356 127.808 302.356 127.808C302.356 127.808 310.408 120.23 313.579 119.599C315.101 119.296 316.681 119.612 317.971 120.477C319.26 121.342 320.155 122.685 320.456 124.211C320.758 125.736 320.443 127.32 319.58 128.612C318.717 129.905 317.377 130.801 315.855 131.104Z" fill="black"/>
<path opacity="0.25" d="M293.614 152.149C290.566 151.09 283.622 142.477 283.622 142.477C283.622 142.477 294.39 140.005 297.442 141.065C298.874 141.6 300.04 142.675 300.691 144.061C301.342 145.446 301.427 147.032 300.927 148.48C300.427 149.927 299.383 151.121 298.016 151.807C296.65 152.492 295.07 152.615 293.614 152.149Z" fill="black"/>
<path opacity="0.25" d="M273.209 164.272C270.022 163.746 261.726 156.433 261.726 156.433C261.726 156.433 271.925 152.176 275.113 152.699C275.871 152.824 276.597 153.098 277.249 153.504C277.901 153.911 278.468 154.442 278.915 155.068C279.363 155.694 279.683 156.402 279.858 157.151C280.032 157.901 280.058 158.678 279.933 159.438C279.808 160.197 279.535 160.925 279.129 161.579C278.724 162.233 278.194 162.8 277.569 163.249C276.945 163.697 276.238 164.018 275.49 164.193C274.742 164.368 273.967 164.394 273.209 164.269V164.272Z" fill="black"/>
<path opacity="0.25" d="M293.353 119.422C293.353 122.661 299.196 132.055 299.196 132.055C299.196 132.055 305.053 122.664 305.053 119.426C305.053 117.871 304.436 116.379 303.339 115.28C302.242 114.18 300.754 113.563 299.203 113.563C297.651 113.563 296.163 114.18 295.066 115.28C293.969 116.379 293.353 117.871 293.353 119.426V119.422Z" fill="black"/>
<path opacity="0.25" d="M269.666 133.895C270.631 136.984 279.015 144.195 279.015 144.195C279.015 144.195 281.799 133.48 280.834 130.391C280.37 128.905 279.337 127.665 277.961 126.943C276.585 126.221 274.979 126.077 273.497 126.541C272.014 127.006 270.777 128.042 270.057 129.421C269.336 130.8 269.192 132.409 269.656 133.895H269.666Z" fill="black"/>
<path opacity="0.25" d="M248.563 151.137C249.003 154.349 256.049 162.877 256.049 162.877C256.049 162.877 260.601 152.79 260.171 149.579C260.069 148.816 259.818 148.08 259.432 147.414C259.046 146.748 258.533 146.165 257.922 145.698C257.311 145.231 256.614 144.889 255.872 144.691C255.129 144.494 254.355 144.445 253.593 144.548C252.055 144.755 250.662 145.566 249.721 146.802C249.255 147.414 248.913 148.113 248.716 148.857C248.519 149.601 248.471 150.377 248.573 151.141L248.563 151.137Z" fill="black"/>
<path d="M248.77 173.544C248.77 173.544 251.425 146.126 267.23 131.545C273.866 125.434 278.476 117.406 280.102 108.521C280.876 104.304 281.262 100.024 281.257 95.736" stroke="#535461" stroke-width="2" stroke-miterlimit="10"/>
<path d="M291.178 86.4917C289.972 89.4961 281.044 95.9974 281.044 95.9974C281.044 95.9974 279.12 85.0964 280.329 82.0783C280.954 80.7044 282.084 79.6252 283.483 79.0654C284.882 78.5057 286.443 78.5086 287.84 79.0735C289.237 79.6385 290.363 80.7219 290.983 82.0981C291.603 83.4743 291.669 85.0371 291.168 86.4611L291.178 86.4917Z" fill="#5D2C8F"/>
<path d="M293.458 106.746C290.816 108.609 279.787 109.217 279.787 109.217C279.787 109.217 284.082 99.0324 286.728 97.155C287.997 96.2799 289.56 95.9422 291.077 96.2151C292.593 96.4881 293.941 97.3497 294.827 98.6128C295.714 99.8759 296.067 101.439 295.811 102.961C295.555 104.484 294.709 105.844 293.458 106.746Z" fill="#5D2C8F"/>
<path d="M281.633 135.018C278.415 135.29 268.585 130.235 268.585 130.235C268.585 130.235 277.433 123.605 280.654 123.333C282.2 123.203 283.735 123.694 284.92 124.697C286.105 125.701 286.844 127.136 286.973 128.685C287.103 130.235 286.614 131.772 285.612 132.96C284.611 134.148 283.179 134.888 281.633 135.018Z" fill="#5D2C8F"/>
<path d="M267.87 154.389C264.744 155.201 254.203 151.884 254.203 151.884C254.203 151.884 261.804 143.848 264.934 143.037C266.436 142.647 268.031 142.87 269.368 143.659C270.706 144.447 271.676 145.736 272.066 147.242C272.455 148.747 272.232 150.346 271.445 151.686C270.658 153.027 269.372 153.999 267.87 154.389Z" fill="#5D2C8F"/>
<path d="M268.159 105.198C269.466 108.158 278.608 114.364 278.608 114.364C278.608 114.364 280.167 103.405 278.859 100.445C278.23 99.0225 277.063 97.909 275.615 97.349C274.167 96.7891 272.557 96.8286 271.138 97.4589C269.719 98.0891 268.608 99.2585 268.049 100.71C267.49 102.161 267.53 103.775 268.159 105.198Z" fill="#5D2C8F"/>
<path d="M252.36 128.059C254.494 130.489 265.073 133.677 265.073 133.677C265.073 133.677 263.284 122.753 261.154 120.318C260.647 119.739 260.031 119.265 259.341 118.924C258.651 118.583 257.901 118.382 257.134 118.331C256.366 118.281 255.596 118.382 254.868 118.63C254.14 118.878 253.467 119.267 252.889 119.775C252.311 120.283 251.838 120.901 251.498 121.592C251.157 122.284 250.956 123.035 250.906 123.804C250.856 124.574 250.957 125.345 251.204 126.075C251.452 126.805 251.84 127.479 252.347 128.059H252.36Z" fill="#5D2C8F"/>
<path d="M240.047 152.39C241.741 155.15 251.629 160.083 251.629 160.083C251.629 160.083 251.71 149.012 250.02 146.252C249.207 144.927 247.903 143.979 246.394 143.617C244.885 143.256 243.294 143.51 241.971 144.324C240.649 145.138 239.703 146.445 239.343 147.957C238.982 149.47 239.235 151.065 240.047 152.39Z" fill="#5D2C8F"/>
<path d="M95.4673 0V9.29521V239.496H267.339V9.29521V0H95.4673Z" fill="url(#paint0_linear)"/>
<path d="M265.831 2.10144H96.9746V11.2303H265.831V2.10144Z" fill="#F6F7F9"/>
<g opacity="0.2">
<path opacity="0.2" d="M265.831 2.10144H96.9746V11.2303H265.831V2.10144Z" fill="#5D2C8F"/>
</g>
<path d="M265.831 11.2303H96.9746V237.395H265.831V11.2303Z" fill="#F6F7F9"/>
<path d="M101.416 8.21223C102.269 8.21223 102.96 7.51913 102.96 6.66416C102.96 5.80918 102.269 5.11609 101.416 5.11609C100.563 5.11609 99.8711 5.80918 99.8711 6.66416C99.8711 7.51913 100.563 8.21223 101.416 8.21223Z" fill="#F6F7F9"/>
<path d="M105.602 8.21223C106.455 8.21223 107.147 7.51913 107.147 6.66416C107.147 5.80918 106.455 5.11609 105.602 5.11609C104.749 5.11609 104.058 5.80918 104.058 6.66416C104.058 7.51913 104.749 8.21223 105.602 8.21223Z" fill="#F6F7F9"/>
<path d="M109.789 8.21223C110.642 8.21223 111.333 7.51913 111.333 6.66416C111.333 5.80918 110.642 5.11609 109.789 5.11609C108.936 5.11609 108.244 5.80918 108.244 6.66416C108.244 7.51913 108.936 8.21223 109.789 8.21223Z" fill="#F6F7F9"/>
<g opacity="0.2">
<path opacity="0.2" d="M235.692 25.1731H127.112V29.4337H235.692V25.1731Z" fill="#5D2C8F"/>
</g>
<path d="M235.691 25.1731H221.265V29.4337H235.691V25.1731Z" fill="#5D2C8F"/>
<g opacity="0.2">
<path opacity="0.2" d="M249.733 112.242H113.076V161.295H249.733V112.242Z" fill="#5D2C8F"/>
<path opacity="0.2" d="M249.732 112.246H245.667V112.586H249.732V112.246ZM241.602 112.246H237.537V112.586H241.602V112.246ZM233.473 112.246H229.408V112.586H233.473V112.246ZM225.343 112.246H221.278V112.586H225.343V112.246ZM217.214 112.246H213.149V112.586H217.214V112.246ZM209.084 112.246H205.019V112.586H209.084V112.246ZM200.955 112.246H196.89V112.586H200.955V112.246ZM192.825 112.246H188.76V112.586H192.825V112.246ZM184.696 112.246H180.631V112.586H184.696V112.246ZM176.566 112.246H172.501V112.586H176.566V112.246ZM168.437 112.246H164.372V112.586H168.437V112.246ZM160.307 112.246H156.242V112.586H160.307V112.246ZM152.178 112.246H148.113V112.586H152.178V112.246ZM144.048 112.246H139.983V112.586H144.048V112.246ZM135.919 112.246H131.854V112.586H135.919V112.246ZM127.789 112.246H123.724V112.586H127.789V112.246ZM119.66 112.246H115.595V112.586H119.66V112.246ZM113.41 113.794H113.071V117.868H113.41V113.794ZM113.41 121.942H113.071V126.016H113.41V121.942ZM113.41 130.09H113.071V134.164H113.41V130.09ZM113.41 138.237H113.071V142.311H113.41V138.237ZM113.41 146.385H113.071V150.459H113.41V146.385ZM113.41 154.533H113.071V158.607H113.41V154.533ZM118.511 160.959H114.447V161.299H118.511V160.959ZM126.641 160.959H122.576V161.299H126.641V160.959ZM134.77 160.959H130.706V161.299H134.77V160.959ZM142.9 160.959H138.835V161.299H142.9V160.959ZM151.029 160.959H146.965V161.299H151.029V160.959ZM159.159 160.959H155.094V161.299H159.159V160.959ZM167.288 160.959H163.224V161.299H167.288V160.959ZM175.418 160.959H171.353V161.299H175.418V160.959ZM183.547 160.959H179.483V161.299H183.547V160.959ZM191.677 160.959H187.612V161.299H191.677V160.959ZM199.806 160.959H195.742V161.299H199.806V160.959ZM207.936 160.959H203.871V161.299H207.936V160.959ZM216.065 160.959H212.001V161.299H216.065V160.959ZM224.195 160.959H220.13V161.299H224.195V160.959ZM232.324 160.959H228.26V161.299H232.324V160.959ZM240.454 160.959H236.389V161.299H240.454V160.959ZM248.583 160.959H244.519V161.299H248.583V160.959ZM249.728 154.299H249.39V158.373H249.728V154.299ZM249.728 146.151H249.39V150.225H249.728V146.151ZM249.728 138.003H249.39V142.077H249.728V138.003ZM249.728 129.855H249.39V133.929H249.728V129.855ZM249.728 121.708H249.39V125.782H249.728V121.708ZM249.728 113.56H249.39V117.634H249.728V113.56Z" fill="#5D2C8F"/>
</g>
<path d="M4.92513 152.237C4.92513 152.237 6.36811 155.914 5.84986 156.817C5.84986 156.817 6.11068 159.533 9.60637 161.397C13.1021 163.26 17.0584 167.718 17.0584 167.718C17.4019 168.273 17.8559 168.751 18.3921 169.123C18.9283 169.494 19.5351 169.751 20.1747 169.877C20.2086 170.305 20.2323 170.556 20.2323 170.556L20.4152 170.634C20.3746 170.783 20.3339 170.94 20.2933 171.099C20.1984 171.469 20.1036 171.863 20.0155 172.27C19.4363 174.915 19.0874 178.194 20.256 180.038C20.416 180.287 20.5586 180.547 20.6828 180.815C22.2613 184.169 21.1807 188.379 21.1807 188.379C21.1807 188.379 22.5628 197.926 23.1657 199.474C23.5959 200.57 23.1996 202.101 22.932 202.899C22.8043 203.282 22.7379 203.683 22.7355 204.087V207.482C22.7355 207.482 22.0581 210.32 22.3968 211.094C22.7355 211.868 21.7938 214.021 21.7938 214.021C21.7938 214.021 19.5481 223.394 20.4965 224.942C21.445 226.49 21.3603 229.929 21.3603 229.929C21.3603 229.929 23.1725 243.346 23.8669 243.848C24.4322 244.352 24.9257 244.931 25.3336 245.569C25.3336 245.569 24.1006 248.608 24.8424 249.861C24.8608 249.892 24.8811 249.923 24.9034 249.952C24.7679 250.292 24.463 251.137 24.2971 251.782C24.2429 251.993 24.1887 252.261 24.1412 252.556C24.0468 253.126 24.0026 253.703 24.0091 254.281L23.9549 254.328L24.0125 254.379C24.0157 254.635 24.0533 254.89 24.1243 255.136C24.3817 255.91 26.326 255.91 26.326 255.91C26.326 255.91 29.8014 256.902 31.3562 257.676C32.9109 258.45 33.9678 258.039 33.9678 258.039C37.5312 258.857 42.0973 257.438 43.4895 257.16C44.8816 256.881 45.4135 255.096 43.7029 254.749C43.4852 254.704 43.272 254.64 43.0661 254.556C42.2114 254.186 41.471 253.594 40.9219 252.841C39.7675 251.735 38.553 250.693 37.2839 249.721C36.4115 249.076 35.6427 248.301 35.0043 247.423C34.6514 247.082 34.2017 246.859 33.7171 246.785C33.8752 246.508 33.9328 246.184 33.8804 245.869C33.8279 245.555 33.6685 245.267 33.4292 245.057C33.5755 244.766 33.6159 244.432 33.5436 244.115C33.4713 243.797 33.2907 243.514 33.0329 243.315L32.3927 242.82L32.5417 242.646C32.7348 242.421 32.8513 242.14 32.8745 241.844C32.8976 241.548 32.8261 241.253 32.6705 241C32.3927 240.535 32.1217 239.71 32.0506 238.264C31.8744 234.91 31.0141 233.619 31.0141 233.619L31.5323 218.308C31.4844 217.479 31.4844 216.647 31.5323 215.817C31.617 214.869 33.226 215.477 33.4732 215.236C33.7205 214.995 33.7747 213.753 34.4657 213.406C34.7096 213.284 34.923 212.853 35.0924 212.347C35.396 211.381 35.4565 210.355 35.2685 209.36C35.2262 209.123 35.2326 208.881 35.2873 208.648C35.3421 208.414 35.444 208.194 35.5869 208.002C36.366 206.983 36.1052 203.446 36.1052 203.446L37.3009 196.072C39.1978 202.329 41.6129 209.865 42.4123 210.412C43.7943 211.356 43.6182 212.646 43.6182 212.646C42.497 214.024 42.9407 219.958 42.9407 219.958C42.9407 219.958 42.9407 236.383 43.7503 237.503C44.5599 238.624 46.1214 242.059 46.1214 242.059C46.1214 242.059 41.5147 246.133 45.1052 248.214L45.2576 249.952C45.2363 249.975 45.217 250 45.2001 250.027C44.865 250.441 44.6328 250.928 44.5226 251.449L44.4989 251.477C44.4345 252.027 44.675 252.566 45.6878 252.794C48.1097 253.33 56.5712 253.289 56.5712 253.289L61.3134 254.04C61.3134 254.04 69.4429 254.814 70.3575 252.298C71.272 249.783 69.6461 249.922 69.6461 249.922H69.5818L66.1945 249.65C66.1945 249.65 61.8994 247.993 60.3209 246.853C59.0775 245.889 57.9027 244.84 56.8049 243.712C56.4966 243.664 56.1812 243.723 55.9107 243.879L55.765 243.733L55.5313 243.499L56.4222 242.141C57.313 240.593 53.8173 237.666 53.8173 237.666C53.8173 237.666 54.7522 234.054 54.4067 233.884C54.0612 233.714 53.8343 230.435 53.8343 230.435C53.8343 230.435 54.6845 218.553 54.339 217.45C54.1831 216.947 54.4304 216.407 54.7488 215.969C55.2256 215.299 55.4642 214.487 55.4263 213.664C55.3992 212.985 55.5042 212.215 55.992 211.688C57.0285 210.568 55.992 205.754 55.992 205.754L55.1316 199.389V189.279C55.1266 187.332 54.7673 185.403 54.0714 183.586C53.619 182.32 53.3254 181.003 53.1974 179.664L53.4854 179.749C53.3706 179.683 53.2676 179.598 53.1805 179.498C53.1636 179.335 53.1433 179.159 53.1297 179.006C52.8553 175.821 51.1718 172.729 49.9897 170.906C49.7187 169.84 50.0202 165.396 50.0202 165.396C51.3751 163.074 50.0845 159.719 50.0845 159.719C50.0845 159.719 48.7296 143.852 47.8828 141.659C47.036 139.466 46.6532 125.855 48.6619 125.984C50.6705 126.113 63.6202 119.534 63.6202 119.534C63.6202 119.534 63.2984 119.018 67.5731 117.276C71.8479 115.535 78.0737 110.117 78.0737 110.117L86.6876 99.7962C86.6564 99.8032 86.624 99.8032 86.5928 99.7962L86.7689 99.7385C87.753 99.4455 88.6642 98.9474 89.4429 98.277C90.2216 97.6065 90.8502 96.7788 91.2876 95.8479C92.778 92.5685 89.7938 88.1314 87.8393 86.1386L85.9729 85.1337C85.475 85.5444 85.6579 87.3539 84.8449 89.2924C84.1705 91.0206 83.6049 92.7894 83.1513 94.5884L83.0632 94.9279L82.9819 94.7786L78.4531 98.3737L74.1783 101.857C74.1783 101.857 64.721 106.437 63.5558 107.598C62.3906 108.759 62.001 108.436 60.9679 108.694C59.9348 108.952 59.7993 109.662 59.4775 109.597C59.1557 109.533 58.5697 110.5 58.1226 110.371C57.6754 110.242 56.6999 110.758 56.0495 110.887C55.3992 111.016 50.7992 112.972 50.7992 112.972C47.9471 111.553 40.2411 112.133 40.2411 112.133C40.2411 112.133 37.7141 110.65 37.0028 112.133C36.8077 112.555 36.4971 112.912 36.1073 113.163C35.7175 113.414 35.2645 113.549 34.8011 113.552L31.7288 112.242C31.7288 112.16 31.7288 112.076 31.7525 111.994V111.943C31.7762 111.75 31.8067 111.566 31.8372 111.39C33.4028 110.768 34.7907 109.769 35.8772 108.479C36.9637 107.19 37.7149 105.651 38.064 104C38.4132 102.349 38.3493 100.637 37.878 99.0169C37.4068 97.3967 36.5429 95.9185 35.3633 94.7141L35.0958 94.456C35.4108 94.3077 35.7074 94.1232 35.9798 93.9061C36.0681 93.8492 36.1349 93.7643 36.1695 93.665C36.1786 93.631 36.1809 93.5954 36.1762 93.5605C36.1716 93.5255 36.1601 93.4918 36.1424 93.4613C36.116 93.378 36.0721 93.3012 36.0137 93.2363C35.9552 93.1713 35.8837 93.1195 35.8037 93.0845C34.8688 92.5787 33.8357 92.745 33.0261 91.9336C32.8393 91.7485 32.6949 91.525 32.6027 91.2784C32.5129 91.0131 32.5129 90.7255 32.6027 90.4603C32.8297 89.856 33.5613 89.4418 33.5173 88.79H33.4868C33.4868 88.7526 33.4868 88.7153 33.4868 88.6779C32.7197 88.9885 31.8948 89.1298 31.0683 89.0921L31.2207 88.4131H31.2783L31.3596 88.0533L31.302 88.0702L31.3257 87.9548L29.0494 88.5659C28.9677 88.601 28.8789 88.6165 28.7901 88.6112C28.7013 88.6059 28.615 88.5799 28.538 88.5353C28.4522 88.432 28.3919 88.3099 28.3618 88.1789C28.1653 87.7002 27.5319 87.5474 27.034 87.6832C26.5499 87.8663 26.0938 88.1166 25.6791 88.4267C24.2056 89.3264 22.4069 89.4452 20.693 89.6625C18.979 89.8797 17.1566 90.2498 15.9508 91.4855C14.352 93.1354 14.3723 95.7325 13.373 97.8C13.1856 98.1309 13.0324 98.4801 12.9158 98.8422C12.8129 99.3872 12.8221 99.9475 12.9429 100.489C13.1867 102.078 13.4543 103.727 14.2978 105.089L14.2063 104.98C14.3079 105.159 14.4208 105.336 14.545 105.51C15.1514 106.365 16.005 107.061 16.6519 107.886C16.6113 107.808 16.5605 107.737 16.5164 107.659C16.8803 108.074 17.1671 108.551 17.3633 109.068C17.5868 109.706 17.6343 110.426 17.9018 111.03C17.9912 111.266 18.122 111.485 18.288 111.675C18.4998 111.889 18.7578 112.051 19.0421 112.148C19.3264 112.246 19.6294 112.277 19.9275 112.238C19.6481 112.972 19.3082 113.68 18.9113 114.357L18.8605 114.445C18.6891 114.437 18.5176 114.457 18.3524 114.503C17.6004 114.642 15.026 116.859 15.026 116.859L10.4295 120.933C3.49908 126.365 5.05385 134.801 5.05385 134.801V139.078C5.05385 139.078 3.69893 143.658 5.05385 148.245L4.92513 152.237ZM15.0464 152.302C15.0464 152.302 17.4446 150.367 16.6011 149.205C16.3301 148.832 16.2218 148.048 16.198 147.169L19.3211 154.121C19.3211 154.121 21.2011 157.153 20.2289 158.507V158.531L16.5029 154.186C16.5029 154.186 16.3437 152.302 15.0464 152.302Z" fill="url(#paint1_linear)"/>
<path d="M82.3247 97.1822L84.3571 101.158C85.0042 101.103 85.6424 100.97 86.2574 100.76C87.2308 100.467 88.1315 99.9714 88.9003 99.305C89.6692 98.6386 90.2887 97.8169 90.7184 96.8936C92.5408 92.8537 87.5852 87.0485 86.1794 86.288C84.7737 85.5275 85.4105 87.8259 84.3571 90.3619C83.6945 92.079 83.1412 93.8366 82.7007 95.624C82.4704 96.5474 82.3247 97.1822 82.3247 97.1822Z" fill="#CC818C"/>
<path d="M17.4443 117.85L20.7063 122.722C20.7063 122.722 36.1185 130.092 33.1783 121.442C31.881 117.63 31.7252 114.836 31.9589 112.907C31.9605 112.889 31.9605 112.871 31.9589 112.853C32.2637 110.439 33.1715 109.39 33.1715 109.39C33.1715 109.39 18.1455 101.684 20.3811 106.956C20.8462 108.05 21.037 109.241 20.9366 110.426C20.75 112.128 20.1976 113.769 19.3175 115.236C18.7833 116.169 18.1557 117.045 17.4443 117.85Z" fill="#CC818C"/>
<path d="M22.1155 214.292C22.1155 214.292 19.8969 223.605 20.8351 225.156C21.7734 226.708 21.6853 230.113 21.6853 230.113C21.6853 230.113 23.4772 243.444 24.1615 243.957C24.7191 244.454 25.2068 245.025 25.6112 245.654C25.6112 245.654 24.3918 248.672 25.1234 249.918C25.2339 250.113 25.4054 250.266 25.6112 250.353C26.7527 250.835 30.9733 248.693 33.3783 247.379C33.6787 247.215 33.9062 246.944 34.0151 246.619C34.1054 246.362 34.1166 246.083 34.0471 245.82C33.9777 245.557 33.8308 245.32 33.6256 245.142C33.7689 244.852 33.808 244.521 33.7364 244.206C33.6649 243.891 33.4869 243.61 33.2326 243.41L32.6026 242.918L32.7482 242.745C32.9381 242.52 33.0526 242.241 33.0757 241.948C33.0988 241.654 33.0293 241.361 32.877 241.109C32.5992 240.647 32.3316 239.829 32.2605 238.393C32.0911 235.062 31.2443 233.779 31.2443 233.779L31.749 218.553C31.7029 217.728 31.7029 216.9 31.749 216.075C31.8337 215.134 33.4122 215.756 33.6696 215.498C33.927 215.24 33.9643 214.024 34.6485 213.681C34.889 213.559 35.099 213.131 35.2684 212.629C35.5659 211.669 35.6252 210.65 35.4411 209.662C35.3979 209.426 35.4036 209.184 35.4578 208.95C35.5119 208.716 35.6135 208.496 35.7562 208.304C36.5217 207.285 36.2676 203.775 36.2676 203.775L37.4464 196.449C39.3196 202.665 41.7042 210.154 42.4935 210.707C43.8484 211.648 43.6858 212.928 43.6858 212.928C42.5782 214.286 43.0084 220.196 43.0084 220.196C43.0084 220.196 43.0084 236.515 43.8078 237.629C44.6072 238.742 46.1789 242.154 46.1789 242.154C46.1789 242.154 41.6094 246.228 45.2033 248.285L45.2406 248.309C48.909 250.346 56.4999 244.636 56.4999 244.636L55.7039 243.842L55.4736 243.607L56.3543 242.249C57.235 240.711 53.7833 237.805 53.7833 237.805C53.7833 237.805 54.7047 234.214 54.3659 234.044C54.0272 233.874 53.7833 230.625 53.7833 230.625C53.7833 230.625 54.62 218.831 54.2813 217.725C54.1255 217.226 54.3693 216.706 54.6844 216.255C55.1515 215.585 55.3817 214.779 55.3381 213.963C55.3144 213.284 55.416 212.524 55.9004 212.001C56.9166 210.887 55.9004 206.104 55.9004 206.104L55.0468 199.779V189.717C55.0515 187.785 54.7072 185.869 54.0306 184.061C53.5034 182.596 53.1786 181.065 53.0652 179.512C52.7875 176.273 51.0329 173.123 49.8812 171.33C49.2613 170.383 48.8006 169.812 48.8006 169.812L21.5194 168.743C21.5194 168.743 21.0722 169.958 20.6421 171.656C20.5472 172.023 20.4524 172.413 20.3643 172.82C19.7952 175.448 19.4497 178.704 20.6048 180.537C20.7619 180.785 20.9022 181.044 21.0248 181.311C22.5864 184.641 21.5194 188.827 21.5194 188.827C21.5194 188.827 22.8743 198.313 23.4772 199.85C23.9006 200.94 23.5111 202.461 23.2469 203.245C23.1206 203.626 23.0554 204.025 23.0538 204.427V207.791C23.0538 207.791 22.3764 210.612 22.7151 211.38C23.0538 212.147 22.1155 214.292 22.1155 214.292Z" fill="#444053"/>
<path opacity="0.1" d="M20.8621 180.792C21.0151 181.035 21.1532 181.288 21.2754 181.549L22.8132 181.46C22.6642 180.669 23.7108 173.235 23.7108 173.235L20.6182 173.061C20.0492 175.703 19.7037 178.958 20.8621 180.792Z" fill="black"/>
<path d="M20.5983 180.53C20.7553 180.778 20.8957 181.037 21.0183 181.304L22.5561 181.216C22.4071 180.425 23.4504 172.99 23.4504 172.99L20.3578 172.814C19.7955 175.438 19.45 178.7 20.5983 180.53Z" fill="#444053"/>
<path opacity="0.05" d="M20.5983 180.53C20.7553 180.778 20.8957 181.037 21.0183 181.304L22.5561 181.216C22.4071 180.425 23.4504 172.99 23.4504 172.99L20.3578 172.814C19.7955 175.438 19.45 178.7 20.5983 180.53Z" fill="black"/>
<path opacity="0.1" d="M25.1235 249.918C25.234 250.113 25.4055 250.266 25.6113 250.353C26.7528 250.835 30.9734 248.693 33.3784 247.379C33.6788 247.215 33.9063 246.944 34.0152 246.619C32.6603 246.367 31.7491 247.895 31.7491 247.895C31.5205 247.753 31.266 247.658 31.0004 247.615C30.7348 247.572 30.4633 247.583 30.2018 247.646C29.9403 247.709 29.6939 247.824 29.4769 247.983C29.2599 248.142 29.0766 248.343 28.9376 248.574C27.7622 250.305 25.2489 249.576 25.2489 249.576C25.2489 249.576 25.1981 249.711 25.1235 249.918Z" fill="black"/>
<path d="M24.4155 255.16C24.6729 255.927 26.5901 255.927 26.5901 255.927C26.5901 255.927 30.0248 256.912 31.5593 257.683C33.0937 258.453 34.137 258.042 34.137 258.042C37.653 258.857 42.175 257.445 43.5367 257.17C44.8984 256.895 45.4336 255.133 43.7501 254.793C43.5345 254.749 43.3235 254.684 43.1201 254.6C42.2825 254.232 41.5585 253.646 41.0234 252.903C39.8843 251.799 38.6857 250.758 37.4328 249.786C36.5692 249.145 35.8094 248.374 35.1803 247.501C33.1784 245.729 31.7489 248.18 31.7489 248.18C31.5203 248.038 31.2658 247.943 31.0002 247.9C30.7346 247.857 30.4632 247.868 30.2017 247.931C29.9402 247.994 29.6938 248.109 29.4767 248.268C29.2597 248.427 29.0764 248.628 28.9375 248.859C27.7621 250.587 25.2487 249.857 25.2487 249.857C25.2487 249.857 24.7982 251.015 24.5882 251.847C24.534 252.057 24.4798 252.322 24.4324 252.617C24.2969 253.466 24.2258 254.583 24.4155 255.16Z" fill="#FF748F"/>
<path d="M30.2791 249.752C30.4082 249.752 30.5129 249.647 30.5129 249.518C30.5129 249.388 30.4082 249.284 30.2791 249.284C30.1501 249.284 30.0454 249.388 30.0454 249.518C30.0454 249.647 30.1501 249.752 30.2791 249.752Z" fill="#575988"/>
<path d="M32.2811 251.633C32.4102 251.633 32.5148 251.528 32.5148 251.399C32.5148 251.269 32.4102 251.164 32.2811 251.164C32.152 251.164 32.0474 251.269 32.0474 251.399C32.0474 251.528 32.152 251.633 32.2811 251.633Z" fill="#575988"/>
<path d="M34.3167 253.32C34.4458 253.32 34.5505 253.215 34.5505 253.086C34.5505 252.956 34.4458 252.852 34.3167 252.852C34.1876 252.852 34.083 252.956 34.083 253.086C34.083 253.215 34.1876 253.32 34.3167 253.32Z" fill="#575988"/>
<path d="M33.263 252.566C33.3921 252.566 33.4967 252.462 33.4967 252.332C33.4967 252.203 33.3921 252.098 33.263 252.098C33.1339 252.098 33.0293 252.203 33.0293 252.332C33.0293 252.462 33.1339 252.566 33.263 252.566Z" fill="#575988"/>
<path d="M31.2376 250.631C31.3667 250.631 31.4714 250.526 31.4714 250.397C31.4714 250.268 31.3667 250.163 31.2376 250.163C31.1085 250.163 31.0039 250.268 31.0039 250.397C31.0039 250.526 31.1085 250.631 31.2376 250.631Z" fill="#575988"/>
<path d="M24.4155 255.16C24.6729 255.927 26.5901 255.927 26.5901 255.927C26.5901 255.927 30.0248 256.912 31.5593 257.683C33.0937 258.453 34.137 258.042 34.137 258.042C37.653 258.857 42.175 257.445 43.5367 257.17C44.8984 256.895 45.4336 255.133 43.7501 254.793C43.5345 254.749 43.3235 254.684 43.1201 254.6C41.6319 255.111 40.0783 255.406 38.5066 255.476C35.0312 255.625 32.2808 255.476 32.2808 255.476L28.7647 254.342C28.0984 253.939 27.3595 253.672 26.5901 253.554C25.8449 253.48 24.9337 252.943 24.4324 252.614C24.2969 253.466 24.2258 254.583 24.4155 255.16Z" fill="#DCE6F2"/>
<path opacity="0.5" d="M33.1684 257.37C33.364 257.37 33.5591 257.351 33.751 257.312L33.7002 257.061C32.9841 257.17 32.252 257.067 31.5933 256.766C31.2782 256.644 30.9666 256.494 30.6618 256.352C30.3027 256.182 29.9301 256.012 29.5507 255.866L29.212 255.744C29.0223 255.68 28.8258 255.615 28.6429 255.537C28.5345 255.493 28.4329 255.442 28.3279 255.391C28.0778 255.26 27.8128 255.16 27.5387 255.092C27.3965 255.065 27.2529 255.045 27.1085 255.035C26.9779 255.026 26.8478 255.01 26.7189 254.987C26.4631 254.924 26.2153 254.832 25.9805 254.712C25.7284 254.584 25.4625 254.484 25.1879 254.417L24.9982 254.386C24.7978 254.381 24.6047 254.31 24.4495 254.182L24.2598 254.356C24.4527 254.528 24.6994 254.627 24.9575 254.637L25.1371 254.668C25.392 254.734 25.6394 254.826 25.8755 254.943C26.127 255.073 26.3931 255.172 26.6681 255.238C26.807 255.263 26.9473 255.28 27.0882 255.289C27.2223 255.3 27.3557 255.318 27.4879 255.343C27.7424 255.407 27.9881 255.501 28.2195 255.625C28.3245 255.676 28.4329 255.727 28.5413 255.771C28.7344 255.856 28.9376 255.924 29.1307 255.988L29.4694 256.107C29.8386 256.243 30.2045 256.416 30.5601 256.583C30.9158 256.749 31.1834 256.878 31.5086 257.004C32.0339 257.229 32.597 257.354 33.1684 257.37Z" fill="#575988"/>
<path opacity="0.1" d="M32.3451 214.91C32.3451 214.91 30.577 212.347 27.5487 212.368C24.5205 212.388 23.2231 212.028 23.2231 212.028C23.2231 212.028 25.1607 213.182 26.5054 213.332C27.8502 213.481 32.3451 214.91 32.3451 214.91Z" fill="black"/>
<path opacity="0.1" d="M31.3223 215.498C31.3223 215.498 29.7235 214.387 28.8089 214.343C27.8943 214.299 27.1152 214.214 27.1152 214.214C27.5448 214.514 28.0194 214.743 28.521 214.893C29.2763 215.124 31.3223 215.498 31.3223 215.498Z" fill="black"/>
<path opacity="0.1" d="M30.98 216.278C30.98 216.278 28.5716 216.469 28.5513 217.11L30.98 216.278Z" fill="black"/>
<path opacity="0.1" d="M53.4175 180.245C53.2922 180.269 51.1379 178.004 50.9889 177.105C50.8699 176.539 50.5326 176.044 50.0506 175.726C50.0506 175.726 48.6652 176.283 49.9015 177.987C51.1379 179.692 53.4175 180.245 53.4175 180.245Z" fill="black"/>
<path opacity="0.1" d="M20.3883 106.956C20.8795 108.117 21.3097 108.205 21.2182 109.333C21.7898 109.938 22.4472 110.456 23.1693 110.87C24.6936 111.777 26.3533 113.552 28.2502 113.552C29.5254 113.556 30.7898 113.318 31.9762 112.85C32.2811 110.436 33.1889 109.387 33.1889 109.387C33.1889 109.387 18.1527 101.684 20.3883 106.956Z" fill="black"/>
<path d="M18.085 102.855C18.085 104.869 18.6809 106.838 19.7975 108.513C20.9141 110.188 22.5012 111.494 24.3581 112.264C26.2149 113.035 28.2581 113.237 30.2293 112.844C32.2005 112.451 34.0112 111.481 35.4324 110.057C36.8535 108.632 37.8214 106.818 38.2135 104.842C38.6056 102.866 38.4043 100.819 37.6352 98.9575C36.8661 97.0965 35.5636 95.5059 33.8925 94.3868C32.2214 93.2677 30.2567 92.6703 28.2468 92.6703C25.5517 92.6703 22.967 93.7434 21.0613 95.6534C19.1556 97.5634 18.085 100.154 18.085 102.855Z" fill="#CC818C"/>
<path opacity="0.1" d="M17.4443 117.85L20.7063 122.722C20.7063 122.722 36.1185 130.092 33.1783 121.442C31.881 117.63 31.7252 114.836 31.9589 112.907H31.9352C31.7523 113.546 31.6487 114.205 31.6269 114.87C31.5795 116.2 31.5456 117.881 28.2396 118.438C22.7522 119.364 19.8019 115.922 19.287 115.246C18.7619 116.174 18.1445 117.047 17.4443 117.85Z" fill="black"/>
<path opacity="0.1" d="M82.3247 97.1822L84.3571 101.158C85.0042 101.103 85.6424 100.97 86.2574 100.76L86.4335 100.547C85.6036 100.866 82.7888 95.5458 82.7888 95.5458L82.7007 95.6171C82.4704 96.5473 82.3247 97.1822 82.3247 97.1822Z" fill="black"/>
<path opacity="0.1" d="M20.6421 171.653C27.2236 174.514 49.9964 172.074 49.9964 172.074C49.9256 171.831 49.8869 171.58 49.8812 171.327C49.2613 170.379 48.8007 169.809 48.8007 169.809L21.5194 168.74C21.5194 168.74 21.0723 169.955 20.6421 171.653Z" fill="black"/>
<path d="M31.9318 113.152L34.9804 114.455C35.4394 114.452 35.8878 114.317 36.273 114.067C36.6582 113.817 36.9642 113.462 37.155 113.043C37.8596 111.57 40.3526 113.043 40.3526 113.043C40.3526 113.043 47.9639 112.466 50.7753 113.878C50.7753 113.878 55.3177 111.953 55.9579 111.841C56.5981 111.729 57.5567 111.2 57.9903 111.329C58.4238 111.458 59.0065 110.494 59.3452 110.558C59.6839 110.623 59.7923 109.916 60.8186 109.662C61.845 109.407 62.2244 109.726 63.3761 108.572C64.5277 107.418 73.8767 102.869 73.8767 102.869L78.0701 99.3922L82.5448 95.8038C82.5448 95.8038 85.3596 101.124 86.1929 100.801L77.6874 111.057C77.6874 111.057 71.5462 116.441 67.3256 118.186C63.1051 119.931 63.4269 120.427 63.4269 120.427C63.4269 120.427 50.6364 126.966 48.6515 126.837C46.6665 126.708 47.0527 140.233 47.886 142.412C48.7192 144.592 50.0674 160.344 50.0674 160.344C50.0674 160.344 51.3444 163.678 50.003 165.986C50.003 165.986 49.6846 170.739 50.003 171.561C50.003 171.561 27.088 174.019 20.5844 171.113C20.5844 171.113 19.6258 160.473 20.5844 159.129C21.543 157.784 19.6901 154.77 19.6901 154.77L15.5983 145.604L5.6227 135.541C5.6227 135.541 4.08826 127.145 10.9306 121.761L15.4628 117.725C15.4628 117.725 18.0033 115.521 18.7451 115.382C19.4869 115.243 19.2159 115.382 19.2159 115.382C19.2159 115.382 22.1764 119.711 28.2532 118.685C31.5457 118.129 31.5829 116.445 31.6405 115.117C31.6581 114.453 31.7559 113.793 31.9318 113.152Z" fill="#67647E"/>
<path opacity="0.1" d="M19.4297 147.654C19.4297 147.654 33.4971 148.231 36.312 152.655C36.312 152.655 32.6672 150.923 29.4053 151.436C26.1433 151.949 19.4297 147.654 19.4297 147.654Z" fill="black"/>
<path opacity="0.1" d="M34.967 163.101C34.967 163.101 28.3177 163.549 26.9086 162.14C25.4995 160.731 25.4995 159.896 25.4995 159.896L34.967 163.101Z" fill="black"/>
<path opacity="0.1" d="M18.0847 134.068C18.0847 134.068 23.7144 140.732 16.8687 143.618L18.0847 134.068Z" fill="black"/>
<path opacity="0.1" d="M51.4024 121.184C51.4024 121.184 49.37 125.37 48.3335 125.648L51.4024 121.184Z" fill="black"/>
<path opacity="0.1" d="M58.3088 119.388C58.3088 119.388 53.194 124.005 52.2354 124.453C52.2354 124.453 57.5432 119.388 58.3088 119.388Z" fill="black"/>
<path opacity="0.1" d="M37.9106 114.968C37.9106 114.968 42.8324 122.338 39.6348 126.823C39.6348 126.823 41.4267 121.503 37.9106 114.968Z" fill="black"/>
<path d="M25.4995 170.794L27.0035 172.213L27.2135 172.41L28.9579 174.06C29.0833 174.155 29.2052 174.25 29.3272 174.334C36.4235 179.427 37.8462 171.69 37.8462 171.69C37.8462 171.69 40.9794 173.727 41.4266 172.074C41.8737 170.42 34.1473 168.037 32.9854 168.166C32.883 168.178 32.7796 168.178 32.6772 168.166C32.1197 168.069 31.5826 167.879 31.0885 167.602L30.7498 167.416C30.1028 167.052 29.6015 166.693 29.6015 166.693L25.4995 170.794Z" fill="#CC818C"/>
<path opacity="0.1" d="M17.8306 102.855C17.8295 104.621 18.2867 106.357 19.1573 107.893C20.0279 109.428 21.2819 110.711 22.7963 111.614C22.938 111.376 23.0625 111.129 23.1689 110.874C23.5348 110.018 23.7549 109.108 24.1242 108.256C24.5325 107.324 25.1128 106.477 25.8347 105.761C25.9551 105.619 26.1104 105.512 26.2853 105.449C26.4504 105.426 26.6183 105.438 26.779 105.482C26.9396 105.526 27.0897 105.603 27.2201 105.707C27.6502 106 28.13 106.211 28.636 106.331C28.8902 106.387 29.1543 106.377 29.4034 106.301C29.6524 106.226 29.878 106.088 30.0587 105.9C30.455 105.425 30.3974 104.729 30.2856 104.121C30.035 102.794 29.6082 101.49 29.6082 100.143C29.6082 98.7948 30.1197 97.3383 31.3018 96.6729C32.318 96.0822 33.6154 96.2316 34.7603 95.9159C34.938 95.8676 35.1122 95.8075 35.2819 95.736C33.8706 94.2811 32.0579 93.2819 30.0763 92.8664C28.0946 92.451 26.0342 92.6383 24.1595 93.4043C22.2847 94.1704 20.681 95.4802 19.554 97.1659C18.427 98.8515 17.828 100.836 17.834 102.865L17.8306 102.855Z" fill="black"/>
<path d="M35.9661 94.1166C36.1524 94.2151 36.3522 94.3916 36.3048 94.5953C36.2713 94.6933 36.2056 94.7771 36.1185 94.8329C35.6455 95.2182 35.0975 95.5003 34.5095 95.6613C33.3646 95.9736 32.0808 95.8276 31.0477 96.4149C29.8791 97.0939 29.3541 98.5368 29.3541 99.8845C29.3541 101.232 29.7741 102.539 30.0315 103.863C30.1467 104.471 30.2043 105.167 29.808 105.642C29.6276 105.83 29.4021 105.969 29.1529 106.044C28.9038 106.12 28.6394 106.13 28.3853 106.073C27.8782 105.955 27.397 105.745 26.966 105.452C26.8364 105.348 26.687 105.271 26.5269 105.226C26.3668 105.181 26.1994 105.169 26.0345 105.191C25.8604 105.257 25.7048 105.364 25.5806 105.503C24.8656 106.223 24.2912 107.07 23.887 108.002C23.5144 108.85 23.2942 109.76 22.9318 110.616C22.6125 111.496 22.0109 112.246 21.2212 112.748C20.4116 113.196 19.2837 113.162 18.6604 112.476C18.0371 111.79 18.0812 110.826 17.7865 109.988C17.2784 108.535 15.8591 107.611 14.9716 106.369C13.9791 104.956 13.6912 103.181 13.4338 101.477C13.3132 100.939 13.304 100.382 13.4067 99.8404C13.5237 99.4806 13.6746 99.1328 13.8572 98.8016C14.8429 96.7646 14.826 94.1709 16.4044 92.5312C17.5866 91.3022 19.3853 90.9254 21.0789 90.7183C22.7726 90.5112 24.5475 90.3788 26.0007 89.4928C26.4073 89.1824 26.8569 88.9331 27.3352 88.7527C27.8264 88.6169 28.4497 88.7527 28.6427 89.2449C28.6735 89.3757 28.7338 89.4976 28.8189 89.6014C28.8944 89.6453 28.9791 89.6707 29.0663 89.6754C29.1534 89.6801 29.2404 89.6641 29.3202 89.6286L31.5728 89.0243L31.3153 90.1616C32.126 90.1985 32.9351 90.0583 33.6864 89.7508C33.7305 90.3924 33.009 90.81 32.782 91.4109C32.7028 91.6864 32.7021 91.9787 32.7799 92.2547C32.8577 92.5306 33.011 92.7793 33.2224 92.9725C34.0252 93.7703 35.0447 93.6209 35.9661 94.1166Z" fill="#585268"/>
<path opacity="0.1" d="M45.0918 247.257L45.1833 248.275L45.2205 248.299C48.889 250.336 56.4799 244.626 56.4799 244.626L55.6839 243.831C55.5569 243.977 55.4613 244.148 55.403 244.332C55.3447 244.517 55.325 244.712 55.3451 244.904L53.7971 244.989L51.9409 246.995C51.9409 246.995 46.9277 247.579 45.5694 247.253L45.0918 247.257Z" fill="black"/>
<path d="M45.7317 252.841C48.1197 253.374 56.4796 253.334 56.4796 253.334L61.1676 254.081C61.1676 254.081 69.2023 254.848 70.0965 252.349C70.9908 249.85 69.392 250 69.392 250H69.331L65.9843 249.728C65.9843 249.728 61.7434 248.082 60.1853 246.948C58.9565 245.989 57.7953 244.947 56.7099 243.828C56.7099 243.828 55.3144 243.556 55.3381 245.186L53.7901 245.271L51.9338 247.281C51.9338 247.281 46.9206 247.861 45.5623 247.535H45.0915L45.3083 250.013L45.2473 250.088C44.9357 250.465 43.6011 252.356 45.7317 252.841Z" fill="#FF748F"/>
<path d="M54.3866 246.843C54.5156 246.843 54.6203 246.738 54.6203 246.608C54.6203 246.479 54.5156 246.374 54.3866 246.374C54.2575 246.374 54.1528 246.479 54.1528 246.608C54.1528 246.738 54.2575 246.843 54.3866 246.843Z" fill="#575988"/>
<path d="M60.3988 249.457C60.5278 249.457 60.6325 249.352 60.6325 249.222C60.6325 249.093 60.5278 248.988 60.3988 248.988C60.2697 248.988 60.165 249.093 60.165 249.222C60.165 249.352 60.2697 249.457 60.3988 249.457Z" fill="#575988"/>
<path d="M63.495 250.397C63.624 250.397 63.7287 250.292 63.7287 250.163C63.7287 250.033 63.624 249.929 63.495 249.929C63.3659 249.929 63.2612 250.033 63.2612 250.163C63.2612 250.292 63.3659 250.397 63.495 250.397Z" fill="#575988"/>
<path d="M58.8201 248.958C58.9492 248.958 59.0539 248.853 59.0539 248.723C59.0539 248.594 58.9492 248.489 58.8201 248.489C58.6911 248.489 58.5864 248.594 58.5864 248.723C58.5864 248.853 58.6911 248.958 58.8201 248.958Z" fill="#575988"/>
<path d="M61.9534 249.929C62.0825 249.929 62.1872 249.824 62.1872 249.694C62.1872 249.565 62.0825 249.46 61.9534 249.46C61.8244 249.46 61.7197 249.565 61.7197 249.694C61.7197 249.824 61.8244 249.929 61.9534 249.929Z" fill="#575988"/>
<path d="M57.2249 248.214C57.354 248.214 57.4587 248.109 57.4587 247.98C57.4587 247.851 57.354 247.746 57.2249 247.746C57.0959 247.746 56.9912 247.851 56.9912 247.98C56.9912 248.109 57.0959 248.214 57.2249 248.214Z" fill="#575988"/>
<path d="M55.6497 247.528C55.7788 247.528 55.8835 247.423 55.8835 247.294C55.8835 247.165 55.7788 247.06 55.6497 247.06C55.5207 247.06 55.416 247.165 55.416 247.294C55.416 247.423 55.5207 247.528 55.6497 247.528Z" fill="#575988"/>
<path d="M45.7317 252.841C48.1197 253.374 56.4796 253.334 56.4796 253.334L61.1676 254.081C61.1676 254.081 69.2023 254.848 70.0965 252.349C70.9908 249.85 69.392 250 69.392 250H69.331C68.8161 250.662 67.7898 251.419 65.7709 251.456L59.9922 251.691L54.0035 251.263C54.0035 251.263 48.3975 251.093 47.4829 250.903C46.7148 250.695 45.9667 250.419 45.2473 250.078C44.9357 250.465 43.6011 252.356 45.7317 252.841Z" fill="#DCE6F2"/>
<path opacity="0.5" d="M60.7139 253.52C61.0339 253.522 61.3527 253.482 61.6624 253.402L61.5946 253.154C60.8082 253.324 59.9912 253.286 59.2235 253.045C58.939 252.974 58.6579 252.889 58.3801 252.804C57.8681 252.641 57.3466 252.509 56.8185 252.41C55.9606 252.299 55.0936 252.274 54.2307 252.336H54.0477C51.4831 252.47 48.9115 252.357 46.3688 251.996C45.7963 251.901 45.1459 251.765 44.7293 251.337L44.5464 251.514C45.0172 251.999 45.715 252.149 46.3281 252.247C48.8875 252.613 51.4764 252.727 54.0579 252.587H54.2408C55.0869 252.527 55.9368 252.552 56.7779 252.661C57.2948 252.758 57.805 252.887 58.3056 253.048C58.5901 253.133 58.8746 253.215 59.1592 253.29C59.6657 253.432 60.1881 253.509 60.7139 253.52Z" fill="#575988"/>
<path opacity="0.1" d="M25.4995 170.794L27.0035 172.213L30.7295 167.412C30.0825 167.049 29.5812 166.689 29.5812 166.689L25.4995 170.794Z" fill="black"/>
<path d="M8.55652 131.44L5.61635 135.541V139.836C5.61635 139.836 4.26143 144.385 5.61635 148.937L5.46731 152.909C5.46731 152.909 6.89336 156.562 6.38187 157.462C6.38187 157.462 6.63931 160.154 10.091 162.011C13.5426 163.868 17.4448 168.309 17.4448 168.309C17.4448 168.309 18.9183 171.13 22.8814 170.488L26.6548 172.09L31.0041 166.516L25.1204 163.311C25.1204 163.311 23.088 160.555 21.8584 160.684L16.8723 154.834C16.8723 154.834 16.747 152.974 15.4666 152.974C15.4666 152.974 17.8377 151.052 17.001 149.898C16.1644 148.744 16.8723 143.617 16.8723 143.617L8.55652 131.44Z" fill="#67647E"/>
<path opacity="0.1" d="M14.0575 150.153C14.0575 150.153 7.34045 150.027 6.51057 151.755C5.68068 153.483 12.0115 149.192 14.0575 150.153Z" fill="black"/>
<path opacity="0.1" d="M27.1862 172.074C27.1848 172.187 27.1938 172.301 27.2133 172.413C27.2905 172.929 27.5431 173.402 27.9282 173.753C28.3133 174.103 28.8074 174.31 29.327 174.338H29.4489C29.7454 174.338 30.0391 174.279 30.313 174.165C30.5869 174.052 30.8358 173.885 31.0453 173.674C31.2548 173.464 31.4209 173.214 31.5341 172.94C31.6472 172.665 31.7053 172.371 31.7048 172.074C31.7051 171.823 31.6627 171.573 31.5795 171.337C32.6465 170.478 32.7041 168.933 32.677 168.163C32.1195 168.066 31.5824 167.875 31.0883 167.599C30.809 168.399 30.4348 169.163 29.9739 169.874C29.6418 169.792 29.2955 169.788 28.9613 169.86C28.6272 169.933 28.3139 170.081 28.0452 170.293C27.7766 170.505 27.5596 170.775 27.4108 171.084C27.2619 171.392 27.1851 171.731 27.1862 172.074Z" fill="black"/>
<path d="M30.8854 167.097C30.8854 167.097 32.3995 167.436 32.3995 167.714C32.3995 167.993 32.7383 170.495 31.0751 171.52C29.4119 172.545 29.5847 170.087 29.5847 170.087C29.5847 170.087 31.0141 167.888 30.8854 167.097Z" fill="#575988"/>
<path d="M29.1919 174.338C30.4397 174.338 31.4513 173.324 31.4513 172.074C31.4513 170.823 30.4397 169.809 29.1919 169.809C27.9442 169.809 26.9326 170.823 26.9326 172.074C26.9326 173.324 27.9442 174.338 29.1919 174.338Z" fill="#E4AAB4"/>
<path d="M29.1919 174.019C30.2638 174.019 31.1328 173.148 31.1328 172.073C31.1328 170.999 30.2638 170.128 29.1919 170.128C28.12 170.128 27.251 170.999 27.251 172.073C27.251 173.148 28.12 174.019 29.1919 174.019Z" fill="#DCE6F2"/>
<path opacity="0.1" d="M37.9954 172.949C37.9954 172.949 33.2193 176.925 27.0815 174.402V176.327C27.0815 176.327 31.1734 179.145 34.8723 177.437C38.5712 175.73 37.9954 172.949 37.9954 172.949Z" fill="black"/>
<path opacity="0.1" d="M37.9954 172.437C37.9954 172.437 33.2193 176.409 27.0815 173.89V175.811C27.0815 175.811 31.1734 178.632 34.8723 176.925C38.5712 175.217 37.9954 172.437 37.9954 172.437Z" fill="black"/>
<path d="M37.9954 172.437C37.9954 172.437 33.2193 176.409 27.0815 173.89V175.811C27.0815 175.811 31.1734 178.632 34.8723 176.925C38.5712 175.217 37.9954 172.437 37.9954 172.437Z" fill="#444053"/>
<path opacity="0.05" d="M37.8733 172.437C37.8733 172.437 33.0973 176.409 26.9595 173.89V175.811C26.9595 175.811 31.0513 178.632 34.7503 176.925C38.4492 175.217 37.8733 172.437 37.8733 172.437Z" fill="black"/>
<path opacity="0.1" d="M53.0009 243.814C53.0009 243.814 46.6057 244.992 45.6674 245.247C44.7292 245.502 45.9249 245.953 45.9249 245.953C45.9249 245.953 51.7612 244.904 53.0009 243.814Z" fill="black"/>
<path opacity="0.1" d="M53.1501 240.419C53.0451 240.419 48.8042 239.221 47.8862 237.171L53.1501 240.419Z" fill="black"/>
<path opacity="0.1" d="M46.9612 215.891C46.9612 215.891 45.2439 218.156 44.1328 218.095C43.0218 218.034 45.9518 215.807 46.9612 215.891Z" fill="black"/>
<path opacity="0.1" d="M46.0028 219.653C46.0028 219.653 45.2779 221.255 44.2109 220.743L46.0028 219.653Z" fill="black"/>
<path opacity="0.05" d="M41.982 184.465L37.4464 196.452C37.4464 196.452 36.8062 188.739 38.1578 186.431C38.5425 185.772 39.1067 185.237 39.7842 184.889C40.4616 184.541 41.224 184.394 41.982 184.465Z" fill="black"/>
<g opacity="0.1">
<path opacity="0.1" d="M30.8174 89.4893L30.858 89.3162L31.5863 89.1193L31.505 89.4791C31.2762 89.4961 31.0466 89.4995 30.8174 89.4893Z" fill="black"/>
<path opacity="0.1" d="M32.8193 92.3716L32.7448 92.3003C32.5328 92.1075 32.3791 91.8589 32.3012 91.5827C32.2234 91.3066 32.2245 91.0141 32.3045 90.7386C32.3942 90.5283 32.5165 90.3335 32.6669 90.1615C33.0262 90.0916 33.3778 89.987 33.717 89.8492C33.761 90.4908 33.0395 90.9084 32.816 91.5093C32.7189 91.7887 32.7201 92.0929 32.8193 92.3716Z" fill="black"/>
<path opacity="0.1" d="M20.7265 112.076C21.5101 111.571 22.1055 110.822 22.4202 109.944C22.7826 109.091 23.0062 108.182 23.3754 107.329C23.7788 106.399 24.3533 105.552 25.069 104.834C25.1913 104.693 25.3476 104.586 25.5229 104.522C25.6881 104.499 25.8562 104.51 26.0169 104.554C26.1777 104.599 26.3277 104.675 26.4578 104.78C26.8873 105.073 27.3674 105.284 27.8737 105.401C28.1276 105.458 28.3918 105.449 28.641 105.374C28.8902 105.299 29.1159 105.161 29.2964 104.973C29.6927 104.498 29.6351 103.799 29.52 103.191C29.2727 101.867 28.8425 100.56 28.8425 99.2123C28.8425 97.8645 29.3506 96.4115 30.5192 95.7461C31.5523 95.1554 32.8361 95.3014 33.981 94.989C34.5688 94.8292 35.1168 94.5483 35.59 94.1641L35.6781 94.0826C35.7746 94.1205 35.8685 94.1647 35.9592 94.215C36.1421 94.3134 36.342 94.49 36.2979 94.6937C36.2611 94.7909 36.1948 94.874 36.1082 94.9313C35.6352 95.3165 35.0872 95.5987 34.4993 95.7597C33.3544 96.072 32.0706 95.9226 31.0375 96.5133C29.8688 97.1923 29.3438 98.6351 29.3607 99.9829C29.3777 101.331 29.7774 102.638 30.0382 103.962C30.1534 104.569 30.211 105.265 29.8147 105.741C29.6343 105.929 29.4087 106.067 29.1596 106.143C28.9104 106.218 28.6461 106.228 28.392 106.172C27.8862 106.053 27.4063 105.842 26.9761 105.551C26.8457 105.446 26.6958 105.37 26.5352 105.325C26.3745 105.28 26.2066 105.268 26.0412 105.289C25.8665 105.354 25.7105 105.461 25.5873 105.601C24.8723 106.321 24.2979 107.169 23.8937 108.1C23.5244 108.949 23.3009 109.859 22.9384 110.714C22.6236 111.592 22.0281 112.34 21.2448 112.843C20.4318 113.294 19.3073 113.26 18.6806 112.571C18.5149 112.383 18.3852 112.165 18.2979 111.93C18.6432 112.191 19.058 112.345 19.4902 112.371C19.9223 112.397 20.3525 112.294 20.7265 112.076Z" fill="black"/>
<path opacity="0.1" d="M17.0684 108.816C16.4282 108.008 15.5882 107.316 14.9886 106.464C14.8662 106.296 14.7531 106.121 14.6499 105.941C15.4324 106.929 16.4926 107.727 17.0684 108.816Z" fill="black"/>
</g>
<g opacity="0.1">
<path opacity="0.2" d="M185.735 87.707L96.9746 105.445V55.425L176.166 39.598L185.735 87.707Z" fill="black"/>
</g>
<g opacity="0.2">
<path opacity="0.2" d="M249.733 48.6115H113.076V97.6642H249.733V48.6115Z" fill="#5D2C8F"/>
<path opacity="0.2" d="M249.732 48.6157H245.667V48.9552H249.732V48.6157ZM241.602 48.6157H237.537V48.9552H241.602V48.6157ZM233.473 48.6157H229.408V48.9552H233.473V48.6157ZM225.343 48.6157H221.278V48.9552H225.343V48.6157ZM217.214 48.6157H213.149V48.9552H217.214V48.6157ZM209.084 48.6157H205.019V48.9552H209.084V48.6157ZM200.955 48.6157H196.89V48.9552H200.955V48.6157ZM192.825 48.6157H188.76V48.9552H192.825V48.6157ZM184.696 48.6157H180.631V48.9552H184.696V48.6157ZM176.566 48.6157H172.501V48.9552H176.566V48.6157ZM168.437 48.6157H164.372V48.9552H168.437V48.6157ZM160.307 48.6157H156.242V48.9552H160.307V48.6157ZM152.178 48.6157H148.113V48.9552H152.178V48.6157ZM144.048 48.6157H139.983V48.9552H144.048V48.6157ZM135.919 48.6157H131.854V48.9552H135.919V48.6157ZM127.789 48.6157H123.724V48.9552H127.789V48.6157ZM119.66 48.6157H115.595V48.9552H119.66V48.6157ZM113.41 50.1671H113.071V54.241H113.41V50.1671ZM113.41 58.3149H113.071V62.3887H113.41V58.3149ZM113.41 66.4626H113.071V70.5365H113.41V66.4626ZM113.41 74.6104H113.071V78.6842H113.41V74.6104ZM113.41 82.7581H113.071V86.832H113.41V82.7581ZM113.41 90.9058H113.071V94.9797H113.41V90.9058ZM118.511 97.3324H114.447V97.6719H118.511V97.3324ZM126.641 97.3324H122.576V97.6719H126.641V97.3324ZM134.77 97.3324H130.706V97.6719H134.77V97.3324ZM142.9 97.3324H138.835V97.6719H142.9V97.3324ZM151.029 97.3324H146.965V97.6719H151.029V97.3324ZM159.159 97.3324H155.094V97.6719H159.159V97.3324ZM167.288 97.3324H163.224V97.6719H167.288V97.3324ZM175.418 97.3324H171.353V97.6719H175.418V97.3324ZM183.547 97.3324H179.483V97.6719H183.547V97.3324ZM191.677 97.3324H187.612V97.6719H191.677V97.3324ZM199.806 97.3324H195.742V97.6719H199.806V97.3324ZM207.936 97.3324H203.871V97.6719H207.936V97.3324ZM216.065 97.3324H212.001V97.6719H216.065V97.3324ZM224.195 97.3324H220.13V97.6719H224.195V97.3324ZM232.324 97.3324H228.26V97.6719H232.324V97.3324ZM240.454 97.3324H236.389V97.6719H240.454V97.3324ZM248.583 97.3324H244.519V97.6719H248.583V97.3324ZM249.728 90.6716H249.39V94.7455H249.728V90.6716ZM249.728 82.5238H249.39V86.5977H249.728V82.5238ZM249.728 74.3761H249.39V78.45H249.728V74.3761ZM249.728 66.2284H249.39V70.3022H249.728V66.2284ZM249.728 58.0806H249.39V62.1545H249.728V58.0806ZM249.728 49.9329H249.39V54.0068H249.728V49.9329Z" fill="#5D2C8F"/>
</g>
<g opacity="0.2">
<path opacity="0.2" d="M249.733 175.044H113.076V224.097H249.733V175.044Z" fill="#5D2C8F"/>
<path opacity="0.2" d="M249.732 175.048H245.667V175.388H249.732V175.048ZM241.602 175.048H237.537V175.388H241.602V175.048ZM233.473 175.048H229.408V175.388H233.473V175.048ZM225.343 175.048H221.278V175.388H225.343V175.048ZM217.214 175.048H213.149V175.388H217.214V175.048ZM209.084 175.048H205.019V175.388H209.084V175.048ZM200.955 175.048H196.89V175.388H200.955V175.048ZM192.825 175.048H188.76V175.388H192.825V175.048ZM184.696 175.048H180.631V175.388H184.696V175.048ZM176.566 175.048H172.501V175.388H176.566V175.048ZM168.437 175.048H164.372V175.388H168.437V175.048ZM160.307 175.048H156.242V175.388H160.307V175.048ZM152.178 175.048H148.113V175.388H152.178V175.048ZM144.048 175.048H139.983V175.388H144.048V175.048ZM135.919 175.048H131.854V175.388H135.919V175.048ZM127.789 175.048H123.724V175.388H127.789V175.048ZM119.66 175.048H115.595V175.388H119.66V175.048ZM113.41 176.596H113.071V180.67H113.41V176.596ZM113.41 184.744H113.071V188.818H113.41V184.744ZM113.41 192.892H113.071V196.966H113.41V192.892ZM113.41 201.04H113.071V205.113H113.41V201.04ZM113.41 209.187H113.071V213.261H113.41V209.187ZM113.41 217.335H113.071V221.409H113.41V217.335ZM118.511 223.762H114.447V224.101H118.511V223.762ZM126.641 223.762H122.576V224.101H126.641V223.762ZM134.77 223.762H130.706V224.101H134.77V223.762ZM142.9 223.762H138.835V224.101H142.9V223.762ZM151.029 223.762H146.965V224.101H151.029V223.762ZM159.159 223.762H155.094V224.101H159.159V223.762ZM167.288 223.762H163.224V224.101H167.288V223.762ZM175.418 223.762H171.353V224.101H175.418V223.762ZM183.547 223.762H179.483V224.101H183.547V223.762ZM191.677 223.762H187.612V224.101H191.677V223.762ZM199.806 223.762H195.742V224.101H199.806V223.762ZM207.936 223.762H203.871V224.101H207.936V223.762ZM216.065 223.762H212.001V224.101H216.065V223.762ZM224.195 223.762H220.13V224.101H224.195V223.762ZM232.324 223.762H228.26V224.101H232.324V223.762ZM240.454 223.762H236.389V224.101H240.454V223.762ZM248.583 223.762H244.519V224.101H248.583V223.762ZM249.728 217.101H249.39V221.175H249.728V217.101ZM249.728 208.953H249.39V213.027H249.728V208.953ZM249.728 200.805H249.39V204.879H249.728V200.805ZM249.728 192.658H249.39V196.731H249.728V192.658ZM249.728 184.51H249.39V188.584H249.728V184.51ZM249.728 176.362H249.39V180.436H249.728V176.362Z" fill="#5D2C8F"/>
</g>
<path d="M170.471 36.2347L36.4541 63.0253L46.0275 111.131L180.045 84.34L170.471 36.2347Z" fill="#F6F7F9"/>
<path opacity="0.4" d="M170.471 36.2347L36.4541 63.0253L46.0275 111.131L180.045 84.34L170.471 36.2347Z" fill="#5D2C8F"/>
<path d="M89.8277 61.546C89.3934 62.3043 89.2196 63.1846 89.3332 64.0515C90.1944 63.8598 90.947 63.3389 91.4309 62.5996C91.9148 61.8604 92.0919 60.9611 91.9245 60.093C91.0857 60.3343 90.3492 60.8448 89.8277 61.546Z" fill="#F6F7F9"/>
<path d="M142.785 52.0369C143.321 52.7266 144.068 53.2204 144.912 53.4424C145.061 52.571 144.864 51.6759 144.364 50.9475C143.865 50.2191 143.101 49.7147 142.236 49.5417C142.141 50.4112 142.334 51.288 142.785 52.0369Z" fill="#F6F7F9"/>
<path d="M123.257 51.5481C123.148 52.1382 123.236 52.7478 123.507 53.2829C124.021 52.9614 124.39 52.4514 124.534 51.8616C124.678 51.2718 124.587 50.6489 124.28 50.1256C123.792 50.4746 123.433 50.9744 123.257 51.5481Z" fill="#F6F7F9"/>
<path d="M98.5363 74.5043C98.428 75.0956 98.5161 75.7061 98.7869 76.2425C99.3012 75.9204 99.6697 75.4098 99.8139 74.8195C99.9582 74.2291 99.8668 73.6057 99.5592 73.0818C99.072 73.4309 98.7126 73.9306 98.5363 74.5043Z" fill="#F6F7F9"/>
<path d="M111.378 78.7955C111.674 79.3176 112.134 79.7279 112.685 79.9633C112.873 79.3855 112.828 78.757 112.561 78.2117C112.293 77.6664 111.824 77.2474 111.252 77.0437C111.101 77.6256 111.145 78.2412 111.378 78.7955Z" fill="#F6F7F9"/>
<path d="M106.662 61.6445C106.813 62.5068 107.243 63.2954 107.885 63.8885C108.424 63.188 108.669 62.3043 108.568 61.4255C108.467 60.5466 108.027 59.7421 107.343 59.1832C106.853 59.9067 106.614 60.7714 106.662 61.6445Z" fill="#F6F7F9"/>
<path d="M122.86 62.4321C122.442 63.1996 122.288 64.0834 122.42 64.9477C123.278 64.7376 124.02 64.2003 124.488 63.4502C124.956 62.7 125.113 61.7963 124.927 60.9315C124.092 61.1904 123.366 61.7178 122.86 62.4321Z" fill="#F6F7F9"/>
<path d="M158.139 83.1687C165.516 81.6941 171.295 79.485 171.046 78.2346C170.797 76.9843 164.615 77.1662 157.238 78.6409C149.861 80.1156 144.083 82.3246 144.331 83.575C144.58 84.8253 150.762 84.6434 158.139 83.1687Z" fill="#F6F7F9"/>
<path d="M162.471 76.1135C162.982 75.4944 163.291 74.7341 163.359 73.934C163.359 73.1362 162.864 72.2841 162.078 72.1483C161.201 71.9989 160.439 72.7424 159.894 73.4485C159.348 74.1546 158.715 74.9592 157.824 75.0102C158.189 74.5167 158.421 73.9367 158.496 73.3267C158.571 72.7168 158.486 72.0978 158.251 71.5304C158.165 71.2935 158.016 71.0845 157.821 70.9261C157.272 70.5289 156.489 70.9023 156.022 71.3946C154.538 72.9562 154.525 75.4074 154.935 77.5258C154.596 76.7959 154.596 75.9709 154.437 75.1867C154.277 74.4025 153.891 73.5809 153.146 73.2923C152.693 73.1509 152.209 73.1345 151.747 73.2448C150.965 73.3704 150.114 73.6216 149.715 74.2972C149.197 75.1358 149.603 76.2866 150.331 76.952C151.06 77.6174 152.025 77.9298 152.94 78.31C153.659 78.566 154.312 78.9815 154.85 79.5254C154.916 79.6027 154.974 79.6869 155.023 79.7766L159.89 78.8023C160.868 78.0269 161.736 77.1224 162.471 76.1135Z" fill="#F6F7F9"/>
<path d="M67.3427 98.3738C67.3427 98.3738 63.4744 90.9865 65.0664 84.6584C65.7491 82.0096 65.5566 79.2103 64.5177 76.6804C64.0159 75.4842 63.4059 74.3364 62.6953 73.2516" stroke="#F6F7F9" stroke-miterlimit="10"/>
<path d="M63.6744 69.2727C63.8674 70.2335 62.6819 73.3704 62.6819 73.3704C62.6819 73.3704 60.3887 70.9295 60.199 69.9755C60.145 69.7431 60.1383 69.5022 60.1793 69.2672C60.2202 69.0322 60.308 68.8078 60.4375 68.6076C60.5669 68.4073 60.7352 68.2353 60.9325 68.1017C61.1297 67.9681 61.3518 67.8757 61.5854 67.83C61.8191 67.7844 62.0595 67.7864 62.2924 67.836C62.5252 67.8855 62.7458 67.9816 62.9407 68.1185C63.1357 68.2554 63.3012 68.4302 63.4272 68.6326C63.5533 68.835 63.6373 69.0608 63.6744 69.2965V69.2727Z" fill="#F6F7F9"/>
<path d="M67.6072 74.0256C67.2481 74.9389 64.5586 76.9283 64.5586 76.9283C64.5586 76.9283 63.9591 73.6284 64.3215 72.7152C64.4045 72.4946 64.5305 72.2927 64.6922 72.1214C64.8538 71.9501 65.0479 71.8128 65.2631 71.7175C65.4782 71.6222 65.7102 71.5708 65.9454 71.5663C66.1806 71.5618 66.4144 71.6043 66.633 71.6913C66.8517 71.7784 67.0508 71.9082 67.2189 72.0732C67.387 72.2382 67.5205 72.4351 67.6118 72.6523C67.7032 72.8696 67.7504 73.103 67.7507 73.3388C67.7511 73.5746 67.7046 73.8081 67.6139 74.0256H67.6072Z" fill="#F6F7F9"/>
<path d="M69.2939 83.1579C68.5216 83.7622 65.1953 84.1152 65.1953 84.1152C65.1953 84.1152 66.3402 80.9648 67.1091 80.3605C67.4793 80.0701 67.9493 79.939 68.4159 79.996C68.8825 80.0529 69.3074 80.2934 69.5971 80.6643C69.8868 81.0353 70.0177 81.5064 69.9608 81.974C69.9039 82.4417 69.6641 82.8675 69.2939 83.1579Z" fill="#F6F7F9"/>
<path d="M69.0162 90.3551C68.359 91.0816 65.1411 91.9948 65.1411 91.9948C65.1411 91.9948 65.7339 88.695 66.3944 87.9684C66.5447 87.7773 66.7325 87.6192 66.9463 87.5039C67.16 87.3885 67.3952 87.3185 67.6371 87.298C67.879 87.2776 68.1225 87.3072 68.3526 87.385C68.5826 87.4628 68.7942 87.5872 68.9742 87.7504C69.1543 87.9136 69.299 88.1122 69.3993 88.3338C69.4996 88.5554 69.5533 88.7952 69.5573 89.0385C69.5612 89.2818 69.5152 89.5233 69.4221 89.748C69.329 89.9728 69.1909 90.1759 69.0162 90.3449V90.3551Z" fill="#F6F7F9"/>
<path d="M60.941 77.8415C61.7607 78.3745 65.1074 78.4288 65.1074 78.4288C65.1074 78.4288 63.6881 75.3938 62.865 74.8608C62.4708 74.6182 61.9975 74.5398 61.5463 74.6423C61.0952 74.7448 60.7019 75.0202 60.4506 75.4094C60.1993 75.7987 60.11 76.2711 60.2016 76.7256C60.2932 77.18 60.5586 77.5805 60.941 77.8415Z" fill="#F6F7F9"/>
<path d="M60.7238 86.2642C61.6655 86.5256 64.8733 85.5852 64.8733 85.5852C64.8733 85.5852 62.6139 83.1137 61.6689 82.8489C61.4445 82.7867 61.21 82.7695 60.9789 82.7981C60.7479 82.8267 60.5247 82.9006 60.3221 83.0157C60.1195 83.1308 59.9416 83.2847 59.7984 83.4687C59.6552 83.6527 59.5495 83.8632 59.4875 84.0881C59.4254 84.313 59.4082 84.548 59.4367 84.7796C59.4653 85.0112 59.5391 85.2349 59.6539 85.4379C59.7687 85.6409 59.9223 85.8193 60.1058 85.9628C60.2894 86.1063 60.4994 86.2122 60.7238 86.2744V86.2642Z" fill="#F6F7F9"/>
<path d="M61.6319 94.4765C62.5194 94.8974 65.8423 94.5002 65.8423 94.5002C65.8423 94.5002 64.0301 91.6825 63.1325 91.2649C62.7088 91.073 62.2269 91.0557 61.7906 91.2168C61.3544 91.3778 60.9988 91.7043 60.8005 92.1257C60.6023 92.5472 60.5772 93.0299 60.7309 93.4696C60.8845 93.9094 61.2045 94.271 61.6217 94.4765H61.6319Z" fill="#F6F7F9"/>
<path d="M80.1196 81.6472C80.1196 81.6472 81.2069 82.6079 80.2855 84.5668C79.3642 86.5256 78.6088 88.1755 79.2422 89.1566C79.2422 89.1566 80.5159 85.6056 82.0537 85.2525C83.5915 84.8995 82.2027 83.2156 80.1196 81.6472Z" fill="#F6F7F9"/>
<path opacity="0.1" d="M80.1198 81.6472C80.2159 81.7434 80.299 81.8518 80.3671 81.9697C82.2301 83.4464 83.3682 84.947 81.9218 85.2763C80.5669 85.5886 79.4356 88.3317 79.168 89.0276C79.1917 89.0718 79.2154 89.1159 79.2425 89.1567C79.2696 89.1974 80.5161 85.6056 82.0539 85.2525C83.5918 84.8995 82.203 83.2156 80.1198 81.6472Z" fill="black"/>
<path d="M82.0097 82.7573C82.091 83.1545 82.1079 83.4872 82.0537 83.4973C81.9995 83.5075 81.8911 83.1952 81.8098 82.7946C81.7285 82.394 81.8098 82.5739 81.881 82.5638C81.9521 82.5536 81.9318 82.3702 82.0097 82.7573Z" fill="#F6F7F9"/>
<path d="M82.6566 83.1342C82.3449 83.3956 82.0638 83.5721 82.0265 83.528C81.9893 83.4838 82.2128 83.2394 82.5245 82.978C82.8361 82.7166 82.7243 82.8863 82.7616 82.9271C82.7988 82.9678 82.9648 82.8761 82.6566 83.1342Z" fill="#F6F7F9"/>
<path d="M75.5602 82.5604C75.5602 82.5604 74.9234 83.8641 76.5222 85.3205C78.121 86.7769 79.4522 88.0092 79.2321 89.1567C79.2321 89.1567 76.6984 86.3661 75.1402 86.6309C73.582 86.8957 74.2358 84.7943 75.5602 82.5604Z" fill="#F6F7F9"/>
<path opacity="0.1" d="M75.5602 82.5604C75.5059 82.6846 75.4705 82.8162 75.4552 82.9508C74.2967 85.0319 73.8225 86.8516 75.2824 86.6037C76.6373 86.3729 78.751 88.4743 79.2625 89.0073C79.2593 89.0575 79.2525 89.1075 79.2422 89.1567C79.2422 89.1567 76.7085 86.3661 75.1503 86.6309C73.5921 86.8957 74.2357 84.7943 75.5602 82.5604Z" fill="black"/>
<path d="M74.2429 84.3224C74.3208 84.7196 74.4326 85.0353 74.4868 85.0217C74.541 85.0081 74.5207 84.6822 74.4428 84.2816C74.3649 83.881 74.3446 84.0813 74.2904 84.0949C74.2362 84.1085 74.165 83.9251 74.2429 84.3224Z" fill="#F6F7F9"/>
<path d="M73.7787 84.9062C74.1682 85.0284 74.4934 85.0828 74.5103 85.0285C74.5272 84.9741 74.2258 84.8349 73.8328 84.7127C73.4399 84.5905 73.6127 84.7127 73.5957 84.7569C73.5788 84.801 73.3993 84.7942 73.7787 84.9062Z" fill="#F6F7F9"/>
<path d="M67.8577 100.525C73.0754 99.4816 77.1624 97.9191 76.9864 97.0346C76.8104 96.1502 72.438 96.2788 67.2203 97.3218C62.0027 98.3648 57.9156 99.9274 58.0916 100.812C58.2677 101.696 62.6401 101.568 67.8577 100.525Z" fill="#F6F7F9"/>
<path d="M79.54 90.8691C83.2441 90.1287 86.1457 89.0201 86.0209 88.3931C85.8962 87.7661 82.7923 87.8581 79.0882 88.5985C75.3841 89.339 72.4825 90.4475 72.6073 91.0746C72.7321 91.7016 75.836 91.6096 79.54 90.8691Z" fill="#F6F7F9"/>
<path d="M114.904 84.6104C117.443 84.1028 119.432 83.3425 119.346 82.9123C119.26 82.482 117.133 82.5447 114.594 83.0523C112.054 83.5598 110.066 84.3201 110.151 84.7504C110.237 85.1806 112.365 85.118 114.904 84.6104Z" fill="#F6F7F9"/>
<path d="M133.489 76.4338C135.496 76.0326 137.068 75.4315 137 75.0914C136.932 74.7512 135.251 74.8007 133.243 75.2019C131.236 75.6032 129.664 76.2042 129.732 76.5443C129.8 76.8845 131.482 76.835 133.489 76.4338Z" fill="#F6F7F9"/>
<path d="M97.7935 94.0601C101.498 93.3197 104.399 92.2111 104.274 91.5841C104.15 90.9571 101.046 91.0491 97.3416 91.7895C93.6375 92.53 90.7359 93.6385 90.8607 94.2655C90.9855 94.8925 94.0894 94.8006 97.7935 94.0601Z" fill="#F6F7F9"/>
<path d="M125.38 89.7263C129.084 88.9859 131.986 87.8773 131.861 87.2503C131.736 86.6233 128.632 86.7153 124.928 87.4557C121.224 88.1962 118.322 89.3047 118.447 89.9317C118.572 90.5587 121.676 90.4668 125.38 89.7263Z" fill="#F6F7F9"/>
<path d="M166.183 42.1612L151.4 45.1163L152.078 48.5188L166.86 45.5638L166.183 42.1612Z" fill="#F6F7F9"/>
<path d="M177.701 137.415L177.264 136.981C177.218 136.937 177.182 136.884 177.158 136.825C177.133 136.767 177.12 136.704 177.12 136.641C177.12 136.578 177.133 136.515 177.158 136.457C177.182 136.398 177.218 136.346 177.264 136.302L181.071 132.486C181.115 132.44 181.168 132.404 181.226 132.379C181.284 132.354 181.347 132.342 181.41 132.342C181.473 132.342 181.536 132.354 181.594 132.379C181.652 132.404 181.705 132.44 181.749 132.486L185.553 136.298C185.598 136.342 185.634 136.395 185.659 136.453C185.684 136.512 185.696 136.574 185.696 136.638C185.696 136.701 185.684 136.764 185.659 136.822C185.634 136.88 185.598 136.933 185.553 136.977L185.105 137.415C185.062 137.461 185.009 137.497 184.951 137.522C184.893 137.546 184.83 137.559 184.767 137.559C184.704 137.559 184.641 137.546 184.583 137.522C184.525 137.497 184.472 137.461 184.428 137.415L182.182 135.039V140.681C182.183 140.743 182.171 140.804 182.148 140.861C182.124 140.919 182.09 140.971 182.047 141.014C182.003 141.058 181.951 141.093 181.894 141.117C181.838 141.141 181.777 141.153 181.715 141.153H181.088C180.963 141.153 180.844 141.103 180.755 141.015C180.667 140.926 180.617 140.806 180.617 140.681V135.056L178.368 137.432C178.324 137.476 178.271 137.51 178.213 137.533C178.155 137.556 178.093 137.567 178.031 137.565C177.969 137.564 177.907 137.55 177.851 137.524C177.794 137.498 177.743 137.461 177.701 137.415Z" fill="#F6F7F9"/>
<path d="M181.403 129.033C182.931 129.032 184.424 129.486 185.695 130.336C186.965 131.186 187.956 132.395 188.541 133.809C189.126 135.223 189.279 136.78 188.982 138.281C188.684 139.783 187.949 141.163 186.869 142.245C185.789 143.328 184.413 144.066 182.915 144.365C181.416 144.664 179.863 144.511 178.452 143.925C177.041 143.339 175.834 142.347 174.985 141.074C174.137 139.801 173.684 138.304 173.684 136.773C173.685 134.722 174.499 132.754 175.946 131.303C177.394 129.852 179.356 129.036 181.403 129.033ZM181.403 128.015C179.675 128.014 177.985 128.527 176.547 129.489C175.109 130.451 173.989 131.819 173.327 133.419C172.665 135.02 172.491 136.781 172.828 138.48C173.165 140.179 173.997 141.74 175.219 142.966C176.441 144.191 177.998 145.025 179.694 145.364C181.389 145.702 183.146 145.529 184.743 144.866C186.341 144.203 187.706 143.08 188.666 141.64C189.626 140.199 190.139 138.506 190.139 136.773C190.14 135.623 189.914 134.484 189.475 133.422C189.036 132.359 188.393 131.394 187.582 130.58C186.77 129.767 185.807 129.122 184.747 128.681C183.687 128.241 182.551 128.015 181.403 128.015Z" fill="#F6F7F9"/>
<path d="M177.701 200.221L177.264 199.786C177.218 199.742 177.182 199.689 177.158 199.631C177.133 199.573 177.12 199.51 177.12 199.446C177.12 199.383 177.133 199.32 177.158 199.262C177.182 199.204 177.218 199.151 177.264 199.107L181.071 195.291C181.115 195.246 181.168 195.209 181.226 195.185C181.284 195.16 181.347 195.147 181.41 195.147C181.473 195.147 181.536 195.16 181.594 195.185C181.652 195.209 181.705 195.246 181.749 195.291L185.553 199.104C185.598 199.148 185.634 199.2 185.659 199.259C185.684 199.317 185.696 199.38 185.696 199.443C185.696 199.506 185.684 199.569 185.659 199.628C185.634 199.686 185.598 199.739 185.553 199.783L185.105 200.221C185.061 200.266 185.009 200.302 184.95 200.326C184.892 200.351 184.83 200.363 184.767 200.363C184.704 200.363 184.641 200.351 184.583 200.326C184.525 200.302 184.472 200.266 184.428 200.221L182.172 197.844V203.486C182.172 203.612 182.123 203.732 182.034 203.82C181.946 203.909 181.826 203.958 181.701 203.958H181.088C181.026 203.958 180.965 203.946 180.909 203.922C180.852 203.899 180.8 203.864 180.756 203.82C180.713 203.776 180.679 203.724 180.655 203.667C180.632 203.61 180.62 203.548 180.621 203.486V197.844L178.372 200.221C178.328 200.266 178.276 200.302 178.219 200.327C178.161 200.351 178.099 200.364 178.036 200.364C177.974 200.364 177.912 200.351 177.854 200.327C177.796 200.302 177.744 200.266 177.701 200.221Z" fill="#F6F7F9"/>
<path d="M181.403 191.835C182.931 191.835 184.425 192.288 185.695 193.138C186.966 193.989 187.956 195.197 188.541 196.612C189.126 198.026 189.279 199.583 188.981 201.085C188.684 202.587 187.948 203.966 186.868 205.049C185.787 206.132 184.411 206.869 182.912 207.167C181.414 207.466 179.861 207.312 178.45 206.726C177.038 206.14 175.832 205.147 174.984 203.874C174.135 202.6 173.683 201.103 173.684 199.572C173.686 197.521 174.5 195.555 175.948 194.104C177.395 192.654 179.357 191.838 181.403 191.835ZM181.403 190.817C179.674 190.816 177.984 191.329 176.547 192.291C175.109 193.254 173.988 194.622 173.327 196.222C172.665 197.823 172.491 199.584 172.828 201.283C173.166 202.983 173.998 204.544 175.22 205.769C176.443 206.994 178 207.828 179.696 208.166C181.391 208.504 183.149 208.33 184.746 207.667C186.343 207.004 187.708 205.88 188.668 204.44C189.628 202.999 190.14 201.305 190.139 199.572C190.139 197.25 189.219 195.023 187.58 193.381C185.942 191.739 183.72 190.817 181.403 190.817Z" fill="#F6F7F9"/>
<path d="M315.55 215.406C315.55 215.406 317.969 218.573 314.436 223.353C310.903 228.133 308 232.18 309.169 235.154C309.169 235.154 314.497 226.273 318.836 226.151C323.175 226.029 320.323 220.746 315.55 215.406Z" fill="#5D2C8F"/>
<path opacity="0.1" d="M315.55 215.406C315.761 215.711 315.928 216.045 316.044 216.397C320.279 221.381 322.531 226.032 318.463 226.151C314.673 226.259 310.127 233.049 309.04 234.764C309.074 234.896 309.117 235.027 309.168 235.154C309.168 235.154 314.496 226.273 318.836 226.151C323.175 226.029 320.323 220.746 315.55 215.406Z" fill="black"/>
<path d="M320.035 219.442C320.035 220.556 319.91 221.459 319.754 221.459C319.598 221.459 319.476 220.556 319.476 219.442C319.476 218.329 319.632 218.852 319.784 218.852C319.937 218.852 320.035 218.326 320.035 219.442Z" fill="#FFD037"/>
<path d="M321.587 220.773C320.608 221.306 319.757 221.629 319.683 221.493C319.608 221.357 320.36 220.814 321.319 220.281C322.278 219.748 321.912 220.138 321.996 220.281C322.081 220.424 322.562 220.25 321.587 220.773Z" fill="#FFD037"/>
<path d="M302.784 215.406C302.784 215.406 300.368 218.573 303.901 223.353C307.434 228.133 310.337 232.18 309.169 235.154C309.169 235.154 303.84 226.273 299.501 226.151C295.162 226.029 298.018 220.746 302.784 215.406Z" fill="#5D2C8F"/>
<path opacity="0.1" d="M302.784 215.406C302.575 215.712 302.409 216.045 302.292 216.397C298.058 221.381 295.806 226.032 299.874 226.151C303.661 226.259 308.21 233.049 309.297 234.764C309.262 234.896 309.219 235.026 309.169 235.154C309.169 235.154 303.84 226.273 299.501 226.151C295.162 226.029 298.018 220.746 302.784 215.406Z" fill="black"/>
<path d="M298.292 219.442C298.292 220.556 298.417 221.459 298.57 221.459C298.722 221.459 298.851 220.556 298.851 219.442C298.851 218.329 298.695 218.852 298.539 218.852C298.383 218.852 298.292 218.326 298.292 219.442Z" fill="#FFD037"/>
<path d="M296.75 220.773C297.726 221.306 298.58 221.629 298.651 221.493C298.722 221.357 297.994 220.814 297.018 220.281C296.042 219.748 296.425 220.138 296.341 220.281C296.256 220.424 295.775 220.25 296.75 220.773Z" fill="#FFD037"/>
<path opacity="0.1" d="M309.169 259.387C323.124 259.387 334.438 257.646 334.438 255.5C334.438 253.353 323.124 251.612 309.169 251.612C295.213 251.612 283.899 253.353 283.899 255.5C283.899 257.646 295.213 259.387 309.169 259.387Z" fill="#5D2C8F"/>
<path d="M322.176 230.887L322.054 231.875L321.884 233.273L321.813 233.854L321.644 235.252L321.569 235.836L321.39 237.225L319.456 253.113C319.283 254.532 316.973 255.635 314.182 255.635H304.135C301.344 255.635 299.034 254.532 298.861 253.113L296.937 237.225L296.764 235.83L296.696 235.246L296.524 233.847L296.453 233.266L296.283 231.868L296.161 230.88C296.066 230.079 297.316 229.4 298.895 229.4H319.446C321.021 229.417 322.274 230.096 322.176 230.887Z" fill="#65617D"/>
<path d="M322.054 231.875L321.884 233.27H296.453L296.283 231.875H322.054Z" fill="#9D9CB5"/>
<path d="M321.813 233.854L321.644 235.252H296.696L296.523 233.854H321.813Z" fill="#9D9CB5"/>
<path d="M321.569 235.833L321.4 237.232H296.937L296.768 235.833H321.569Z" fill="#9D9CB5"/>
</g>
<defs>
<linearGradient id="paint0_linear" x1="181.403" y1="239.496" x2="181.403" y2="0" gradientUnits="userSpaceOnUse">
<stop stop-color="#808080" stop-opacity="0.25"/>
<stop offset="0.54" stop-color="#808080" stop-opacity="0.12"/>
<stop offset="1" stop-color="#808080" stop-opacity="0.1"/>
</linearGradient>
<linearGradient id="paint1_linear" x1="-87840.5" y1="141911" x2="-87840.5" y2="53585.2" gradientUnits="userSpaceOnUse">
<stop stop-color="#808080" stop-opacity="0.25"/>
<stop offset="0.54" stop-color="#808080" stop-opacity="0.12"/>
<stop offset="1" stop-color="#808080" stop-opacity="0.1"/>
</linearGradient>
<clipPath id="clip0">
<rect width="344" height="266" fill="white"/>
</clipPath>
</defs>
</svg>
