<svg width="838" height="753" viewBox="0 0 838 753" fill="none" xmlns="http://www.w3.org/2000/svg">
<path d="M137.5 1.49982C60.9996 -234 738.897 -98.0367 889.599 11.0743C1040.3 120.185 1118.76 269.017 1064.83 343.5C1010.9 417.983 982.702 767.611 831.999 658.5C681.296 549.389 -62.0005 240 137.5 1.49982Z" fill="url(#paint0_linear)"/>
<g clip-path="url(#clip0)">
<path opacity="0.1" d="M728.797 455.884C714.476 464.962 695.9 464.372 679.624 459.653C663.348 454.934 648.393 446.518 632.541 440.539C619.225 435.524 605.321 432.243 591.172 430.776C570.96 428.681 548.387 431.231 534.306 445.907C518.623 462.253 519.825 491.738 536.789 506.736C545.416 514.368 556.716 518.113 566.566 524.071C576.417 530.029 585.535 539.925 584.702 551.427C583.926 562.073 574.896 570.245 565.547 575.371C558.325 579.333 549.427 583.658 548.556 591.863C547.713 599.804 555.195 606.027 562.339 609.564C585.64 621.107 614.354 620.995 637.567 609.272C645.849 605.09 653.464 599.529 662.149 596.27C684.952 587.711 710.083 596.328 734.231 599.478C754.735 602.139 775.561 600.766 795.541 595.435C807.501 592.237 819.506 587.348 827.906 578.24C833.963 571.671 837.729 563.36 841.279 555.154C845.059 546.4 848.692 537.585 852.176 528.708C854.269 523.378 856.326 517.946 856.867 512.243C857.846 501.912 853.721 491.7 848.105 482.979C834.769 462.27 812.308 447.72 787.997 444.023C763.686 440.326 737.913 447.55 719.045 463.346" fill="#5D2C8F"/>
<path opacity="0.1" d="M558.979 679C584.373 679 604.958 674.966 604.958 669.99C604.958 665.014 584.373 660.98 558.979 660.98C533.586 660.98 513 665.014 513 669.99C513 674.966 533.586 679 558.979 679Z" fill="#5D2C8F"/>
<path opacity="0.1" d="M695.572 660.182C748.802 660.182 791.954 656.148 791.954 651.172C791.954 646.196 748.802 642.162 695.572 642.162C642.341 642.162 599.189 646.196 599.189 651.172C599.189 656.148 642.341 660.182 695.572 660.182Z" fill="#5D2C8F"/>
<path d="M760.994 587.022C760.994 587.022 774.506 563.034 794.867 556.129C803.406 553.226 810.862 547.77 815.96 540.315C818.371 536.773 820.454 533.017 822.182 529.095" stroke="#535461" stroke-width="2" stroke-miterlimit="10"/>
<path d="M834.966 524.655C832.645 526.909 821.847 529.241 821.847 529.241C821.847 529.241 824.496 518.496 826.816 516.239C827.929 515.156 829.427 514.56 830.978 514.583C832.53 514.607 834.009 515.247 835.089 516.363C836.17 517.479 836.764 518.979 836.741 520.534C836.718 522.089 836.079 523.572 834.966 524.655Z" fill="#5D2C8F"/>
<path d="M828.855 544.104C825.688 544.732 815.356 540.808 815.356 540.808C815.356 540.808 823.408 533.23 826.579 532.599C828.101 532.296 829.681 532.612 830.971 533.477C832.26 534.342 833.155 535.685 833.456 537.211C833.758 538.736 833.443 540.32 832.58 541.613C831.717 542.905 830.377 543.802 828.855 544.104Z" fill="#5D2C8F"/>
<path d="M806.614 565.149C803.565 564.09 796.621 555.477 796.621 555.477C796.621 555.477 807.389 553.005 810.441 554.065C811.873 554.6 813.039 555.675 813.69 557.061C814.342 558.446 814.426 560.032 813.927 561.48C813.427 562.927 812.382 564.121 811.016 564.807C809.649 565.492 808.069 565.615 806.614 565.149Z" fill="#5D2C8F"/>
<path d="M786.209 577.272C783.021 576.746 774.726 569.433 774.726 569.433C774.726 569.433 784.925 565.176 788.112 565.699C788.87 565.824 789.596 566.098 790.249 566.504C790.901 566.911 791.467 567.442 791.915 568.068C792.362 568.694 792.683 569.402 792.857 570.151C793.032 570.901 793.057 571.678 792.932 572.438C792.807 573.197 792.534 573.925 792.129 574.579C791.723 575.233 791.193 575.8 790.569 576.249C789.944 576.698 789.238 577.018 788.49 577.193C787.742 577.368 786.967 577.394 786.209 577.269V577.272Z" fill="#5D2C8F"/>
<path d="M806.354 532.422C806.354 535.661 812.197 545.055 812.197 545.055C812.197 545.055 818.053 535.664 818.053 532.426C818.053 530.871 817.437 529.379 816.34 528.28C815.243 527.18 813.755 526.563 812.203 526.563C810.652 526.563 809.164 527.18 808.067 528.28C806.97 529.379 806.354 530.871 806.354 532.426V532.422Z" fill="#5D2C8F"/>
<path d="M782.666 546.895C783.631 549.984 792.015 557.195 792.015 557.195C792.015 557.195 794.799 546.48 793.834 543.391C793.37 541.905 792.337 540.665 790.961 539.943C789.585 539.221 787.979 539.077 786.497 539.541C785.014 540.006 783.777 541.042 783.057 542.421C782.336 543.8 782.192 545.409 782.656 546.895H782.666Z" fill="#5D2C8F"/>
<path d="M761.563 564.137C762.004 567.349 769.049 575.877 769.049 575.877C769.049 575.877 773.602 565.791 773.172 562.579C773.069 561.816 772.818 561.08 772.432 560.414C772.046 559.748 771.533 559.165 770.922 558.698C770.311 558.231 769.615 557.889 768.872 557.691C768.129 557.494 767.355 557.445 766.594 557.548C765.056 557.755 763.663 558.566 762.721 559.802C762.255 560.414 761.914 561.113 761.717 561.857C761.52 562.601 761.471 563.377 761.574 564.141L761.563 564.137Z" fill="#5D2C8F"/>
<path opacity="0.25" d="M834.966 524.655C832.645 526.909 821.847 529.241 821.847 529.241C821.847 529.241 824.496 518.496 826.816 516.239C827.929 515.156 829.427 514.56 830.978 514.583C832.53 514.607 834.009 515.247 835.089 516.363C836.17 517.479 836.764 518.979 836.741 520.534C836.718 522.089 836.079 523.572 834.966 524.655Z" fill="black"/>
<path opacity="0.25" d="M828.855 544.104C825.688 544.732 815.356 540.808 815.356 540.808C815.356 540.808 823.408 533.23 826.579 532.599C828.101 532.296 829.681 532.612 830.971 533.477C832.26 534.342 833.155 535.685 833.456 537.211C833.758 538.736 833.443 540.32 832.58 541.613C831.717 542.905 830.377 543.802 828.855 544.104Z" fill="black"/>
<path opacity="0.25" d="M806.614 565.149C803.565 564.09 796.621 555.477 796.621 555.477C796.621 555.477 807.389 553.005 810.441 554.065C811.873 554.6 813.039 555.675 813.69 557.061C814.342 558.446 814.426 560.032 813.927 561.48C813.427 562.927 812.382 564.121 811.016 564.807C809.649 565.492 808.069 565.615 806.614 565.149Z" fill="black"/>
<path opacity="0.25" d="M786.209 577.272C783.021 576.746 774.726 569.433 774.726 569.433C774.726 569.433 784.925 565.176 788.112 565.699C788.87 565.824 789.596 566.098 790.249 566.504C790.901 566.911 791.467 567.442 791.915 568.068C792.362 568.694 792.683 569.402 792.857 570.151C793.032 570.901 793.057 571.678 792.932 572.438C792.807 573.197 792.534 573.925 792.129 574.579C791.723 575.233 791.193 575.8 790.569 576.249C789.944 576.698 789.238 577.018 788.49 577.193C787.742 577.368 786.967 577.394 786.209 577.269V577.272Z" fill="black"/>
<path opacity="0.25" d="M806.354 532.422C806.354 535.661 812.197 545.055 812.197 545.055C812.197 545.055 818.053 535.664 818.053 532.426C818.053 530.871 817.437 529.379 816.34 528.28C815.243 527.18 813.755 526.563 812.203 526.563C810.652 526.563 809.164 527.18 808.067 528.28C806.97 529.379 806.354 530.871 806.354 532.426V532.422Z" fill="black"/>
<path opacity="0.25" d="M782.666 546.895C783.631 549.984 792.015 557.195 792.015 557.195C792.015 557.195 794.799 546.48 793.834 543.391C793.37 541.905 792.337 540.665 790.961 539.943C789.585 539.221 787.979 539.077 786.497 539.541C785.014 540.006 783.777 541.042 783.057 542.421C782.336 543.8 782.192 545.409 782.656 546.895H782.666Z" fill="black"/>
<path opacity="0.25" d="M761.563 564.137C762.004 567.349 769.049 575.877 769.049 575.877C769.049 575.877 773.602 565.791 773.172 562.579C773.069 561.816 772.818 561.08 772.432 560.414C772.046 559.748 771.533 559.165 770.922 558.698C770.311 558.231 769.615 557.889 768.872 557.691C768.129 557.494 767.355 557.445 766.594 557.548C765.056 557.755 763.663 558.566 762.721 559.802C762.255 560.414 761.914 561.113 761.717 561.857C761.52 562.601 761.471 563.377 761.574 564.141L761.563 564.137Z" fill="black"/>
<path d="M761.77 586.544C761.77 586.544 764.425 559.126 780.23 544.545C786.866 538.435 791.476 530.406 793.102 521.521C793.876 517.304 794.262 513.024 794.257 508.736" stroke="#535461" stroke-width="2" stroke-miterlimit="10"/>
<path d="M804.178 499.492C802.972 502.496 794.044 508.997 794.044 508.997C794.044 508.997 792.12 498.096 793.329 495.078C793.954 493.704 795.084 492.625 796.483 492.065C797.882 491.506 799.443 491.509 800.84 492.074C802.237 492.639 803.363 493.722 803.983 495.098C804.603 496.474 804.669 498.037 804.168 499.461L804.178 499.492Z" fill="#5D2C8F"/>
<path d="M806.458 519.746C803.816 521.609 792.787 522.217 792.787 522.217C792.787 522.217 797.082 512.032 799.728 510.155C800.997 509.28 802.56 508.942 804.077 509.215C805.593 509.488 806.941 510.35 807.827 511.613C808.714 512.876 809.067 514.439 808.811 515.961C808.555 517.484 807.709 518.844 806.458 519.746Z" fill="#5D2C8F"/>
<path d="M794.633 548.018C791.415 548.29 781.585 543.235 781.585 543.235C781.585 543.235 790.433 536.605 793.654 536.333C795.2 536.203 796.734 536.694 797.919 537.697C799.104 538.701 799.843 540.136 799.973 541.685C800.103 543.235 799.613 544.772 798.612 545.96C797.61 547.148 796.179 547.888 794.633 548.018Z" fill="#5D2C8F"/>
<path d="M780.871 567.39C777.744 568.201 767.203 564.884 767.203 564.884C767.203 564.884 774.804 556.848 777.934 556.037C779.436 555.647 781.031 555.87 782.369 556.659C783.706 557.447 784.677 558.736 785.066 560.242C785.455 561.747 785.232 563.346 784.446 564.686C783.659 566.027 782.373 566.999 780.871 567.39Z" fill="#5D2C8F"/>
<path d="M781.158 518.198C782.466 521.158 791.608 527.364 791.608 527.364C791.608 527.364 793.166 516.405 791.859 513.445C791.23 512.023 790.063 510.909 788.615 510.349C787.167 509.789 785.556 509.829 784.137 510.459C782.718 511.089 781.607 512.259 781.049 513.71C780.49 515.161 780.529 516.775 781.158 518.198Z" fill="#5D2C8F"/>
<path d="M765.36 541.059C767.494 543.49 778.073 546.677 778.073 546.677C778.073 546.677 776.284 535.753 774.154 533.318C773.647 532.739 773.031 532.265 772.341 531.924C771.651 531.583 770.901 531.382 770.134 531.331C769.366 531.281 768.596 531.382 767.868 531.63C767.14 531.878 766.467 532.267 765.889 532.775C765.311 533.284 764.838 533.901 764.498 534.592C764.157 535.284 763.956 536.035 763.906 536.805C763.856 537.574 763.957 538.345 764.204 539.075C764.452 539.805 764.84 540.479 765.347 541.059H765.36Z" fill="#5D2C8F"/>
<path d="M753.047 565.39C754.741 568.15 764.628 573.083 764.628 573.083C764.628 573.083 764.709 562.012 763.019 559.252C762.207 557.927 760.903 556.979 759.393 556.617C757.884 556.256 756.293 556.51 754.971 557.324C753.648 558.138 752.703 559.445 752.342 560.957C751.981 562.47 752.235 564.065 753.047 565.39Z" fill="#5D2C8F"/>
<path d="M608.468 413V422.295V652.496H780.339V422.295V413H608.468Z" fill="url(#paint1_linear)"/>
<path d="M778.831 415.102H609.975V424.23H778.831V415.102Z" fill="#F6F7F9"/>
<g opacity="0.2">
<path opacity="0.2" d="M778.831 415.102H609.975V424.23H778.831V415.102Z" fill="#5D2C8F"/>
</g>
<path d="M778.831 424.23H609.975V650.395H778.831V424.23Z" fill="#F6F7F9"/>
<path d="M614.416 421.212C615.269 421.212 615.96 420.519 615.96 419.664C615.96 418.809 615.269 418.116 614.416 418.116C613.563 418.116 612.871 418.809 612.871 419.664C612.871 420.519 613.563 421.212 614.416 421.212Z" fill="#F6F7F9"/>
<path d="M618.602 421.212C619.455 421.212 620.147 420.519 620.147 419.664C620.147 418.809 619.455 418.116 618.602 418.116C617.749 418.116 617.058 418.809 617.058 419.664C617.058 420.519 617.749 421.212 618.602 421.212Z" fill="#F6F7F9"/>
<path d="M622.789 421.212C623.642 421.212 624.333 420.519 624.333 419.664C624.333 418.809 623.642 418.116 622.789 418.116C621.936 418.116 621.244 418.809 621.244 419.664C621.244 420.519 621.936 421.212 622.789 421.212Z" fill="#F6F7F9"/>
<g opacity="0.2">
<path opacity="0.2" d="M748.691 438.173H640.111V442.434H748.691V438.173Z" fill="#5D2C8F"/>
</g>
<path d="M748.691 438.173H734.265V442.434H748.691V438.173Z" fill="#5D2C8F"/>
<g opacity="0.2">
<path opacity="0.2" d="M762.732 525.242H626.075V574.295H762.732V525.242Z" fill="#5D2C8F"/>
<path opacity="0.2" d="M762.732 525.246H758.667V525.586H762.732V525.246ZM754.602 525.246H750.537V525.586H754.602V525.246ZM746.473 525.246H742.408V525.586H746.473V525.246ZM738.343 525.246H734.278V525.586H738.343V525.246ZM730.214 525.246H726.149V525.586H730.214V525.246ZM722.084 525.246H718.019V525.586H722.084V525.246ZM713.955 525.246H709.89V525.586H713.955V525.246ZM705.825 525.246H701.76V525.586H705.825V525.246ZM697.696 525.246H693.631V525.586H697.696V525.246ZM689.566 525.246H685.501V525.586H689.566V525.246ZM681.437 525.246H677.372V525.586H681.437V525.246ZM673.307 525.246H669.242V525.586H673.307V525.246ZM665.178 525.246H661.113V525.586H665.178V525.246ZM657.048 525.246H652.983V525.586H657.048V525.246ZM648.919 525.246H644.854V525.586H648.919V525.246ZM640.789 525.246H636.724V525.586H640.789V525.246ZM632.66 525.246H628.595V525.586H632.66V525.246ZM626.41 526.794H626.071V530.868H626.41V526.794ZM626.41 534.942H626.071V539.016H626.41V534.942ZM626.41 543.09H626.071V547.164H626.41V543.09ZM626.41 551.238H626.071V555.311H626.41V551.238ZM626.41 559.385H626.071V563.459H626.41V559.385ZM626.41 567.533H626.071V571.607H626.41V567.533ZM631.511 573.96H627.447V574.299H631.511V573.96ZM639.641 573.96H635.576V574.299H639.641V573.96ZM647.77 573.96H643.706V574.299H647.77V573.96ZM655.9 573.96H651.835V574.299H655.9V573.96ZM664.029 573.96H659.965V574.299H664.029V573.96ZM672.159 573.96H668.094V574.299H672.159V573.96ZM680.288 573.96H676.224V574.299H680.288V573.96ZM688.418 573.96H684.353V574.299H688.418V573.96ZM696.547 573.96H692.483V574.299H696.547V573.96ZM704.677 573.96H700.612V574.299H704.677V573.96ZM712.806 573.96H708.742V574.299H712.806V573.96ZM720.936 573.96H716.871V574.299H720.936V573.96ZM729.065 573.96H725.001V574.299H729.065V573.96ZM737.195 573.96H733.13V574.299H737.195V573.96ZM745.324 573.96H741.26V574.299H745.324V573.96ZM753.454 573.96H749.389V574.299H753.454V573.96ZM761.583 573.96H757.519V574.299H761.583V573.96ZM762.728 567.299H762.39V571.373H762.728V567.299ZM762.728 559.151H762.39V563.225H762.728V559.151ZM762.728 551.003H762.39V555.077H762.728V551.003ZM762.728 542.856H762.39V546.929H762.728V542.856ZM762.728 534.708H762.39V538.782H762.728V534.708ZM762.728 526.56H762.39V530.634H762.728V526.56Z" fill="#5D2C8F"/>
</g>
<path d="M517.925 565.237C517.925 565.237 519.368 568.914 518.849 569.817C518.849 569.817 519.11 572.533 522.606 574.397C526.102 576.26 530.058 580.718 530.058 580.718C530.401 581.273 530.855 581.751 531.392 582.123C531.928 582.494 532.535 582.751 533.174 582.877C533.208 583.305 533.232 583.556 533.232 583.556L533.415 583.634C533.374 583.784 533.333 583.94 533.293 584.099C533.198 584.469 533.103 584.863 533.015 585.27C532.436 587.915 532.087 591.195 533.256 593.038C533.416 593.287 533.558 593.547 533.682 593.815C535.261 597.17 534.18 601.379 534.18 601.379C534.18 601.379 535.562 610.926 536.165 612.474C536.595 613.57 536.199 615.101 535.931 615.899C535.804 616.282 535.737 616.683 535.735 617.087V620.482C535.735 620.482 535.058 623.32 535.396 624.094C535.735 624.868 534.793 627.021 534.793 627.021C534.793 627.021 532.548 636.394 533.496 637.942C534.444 639.49 534.36 642.929 534.36 642.929C534.36 642.929 536.172 656.346 536.866 656.848C537.432 657.352 537.925 657.931 538.333 658.57C538.333 658.57 537.1 661.608 537.842 662.861C537.86 662.893 537.881 662.923 537.903 662.952C537.767 663.292 537.463 664.137 537.297 664.782C537.242 664.993 537.188 665.261 537.141 665.556C537.046 666.126 537.002 666.703 537.009 667.281L536.954 667.328L537.012 667.379C537.015 667.636 537.053 667.89 537.124 668.136C537.381 668.91 539.326 668.91 539.326 668.91C539.326 668.91 542.801 669.902 544.356 670.676C545.91 671.45 546.967 671.039 546.967 671.039C550.531 671.857 555.097 670.438 556.489 670.16C557.881 669.881 558.413 668.096 556.702 667.749C556.485 667.704 556.272 667.64 556.066 667.556C555.211 667.187 554.47 666.595 553.921 665.841C552.767 664.735 551.552 663.694 550.283 662.722C549.411 662.076 548.642 661.301 548.004 660.423C547.651 660.082 547.201 659.859 546.717 659.785C546.875 659.508 546.932 659.184 546.88 658.87C546.827 658.555 546.668 658.268 546.429 658.057C546.575 657.766 546.615 657.433 546.543 657.115C546.471 656.797 546.29 656.514 546.032 656.315L545.392 655.82L545.541 655.647C545.734 655.421 545.851 655.14 545.874 654.844C545.897 654.548 545.826 654.253 545.67 654C545.392 653.535 545.121 652.71 545.05 651.264C544.874 647.91 544.014 646.62 544.014 646.62L544.532 631.309C544.484 630.479 544.484 629.647 544.532 628.817C544.617 627.87 546.225 628.477 546.473 628.236C546.72 627.995 546.774 626.753 547.465 626.406C547.709 626.284 547.923 625.853 548.092 625.347C548.395 624.381 548.456 623.355 548.268 622.36C548.226 622.124 548.232 621.881 548.287 621.648C548.342 621.414 548.444 621.194 548.586 621.002C549.365 619.983 549.105 616.446 549.105 616.446L550.3 609.072C552.197 615.329 554.612 622.866 555.412 623.412C556.794 624.356 556.618 625.646 556.618 625.646C555.497 627.024 555.94 632.959 555.94 632.959C555.94 632.959 555.94 649.383 556.75 650.503C557.559 651.624 559.121 655.059 559.121 655.059C559.121 655.059 554.514 659.133 558.105 661.214L558.257 662.952C558.236 662.976 558.217 663.001 558.2 663.027C557.865 663.441 557.632 663.928 557.522 664.45L557.498 664.477C557.434 665.027 557.675 665.566 558.687 665.794C561.109 666.33 569.571 666.29 569.571 666.29L574.313 667.04C574.313 667.04 582.442 667.814 583.357 665.298C584.272 662.783 582.646 662.922 582.646 662.922H582.581L579.194 662.65C579.194 662.65 574.899 660.994 573.32 659.853C572.077 658.889 570.902 657.84 569.804 656.713C569.496 656.664 569.181 656.723 568.91 656.879L568.765 656.733L568.531 656.499L569.422 655.141C570.313 653.593 566.817 650.666 566.817 650.666C566.817 650.666 567.752 647.054 567.406 646.884C567.061 646.715 566.834 643.435 566.834 643.435C566.834 643.435 567.684 631.553 567.338 630.45C567.183 629.947 567.43 629.407 567.748 628.97C568.225 628.299 568.464 627.487 568.426 626.664C568.399 625.985 568.504 625.215 568.991 624.689C570.028 623.568 568.991 618.754 568.991 618.754L568.131 612.389V602.279C568.126 600.332 567.767 598.403 567.071 596.586C566.618 595.32 566.325 594.003 566.197 592.665L566.485 592.749C566.37 592.683 566.267 592.598 566.18 592.498C566.163 592.335 566.143 592.159 566.129 592.006C565.855 588.822 564.171 585.729 562.989 583.906C562.718 582.84 563.02 578.396 563.02 578.396C564.375 576.074 563.084 572.72 563.084 572.72C563.084 572.72 561.729 556.852 560.882 554.659C560.035 552.466 559.653 538.856 561.661 538.985C563.67 539.114 576.62 532.534 576.62 532.534C576.62 532.534 576.298 532.018 580.573 530.277C584.847 528.535 591.073 523.117 591.073 523.117L599.687 512.796C599.656 512.803 599.624 512.803 599.592 512.796L599.768 512.739C600.752 512.446 601.664 511.948 602.442 511.277C603.221 510.607 603.85 509.779 604.287 508.848C605.777 505.569 602.793 501.131 600.839 499.139L598.972 498.134C598.474 498.545 598.657 500.354 597.844 502.293C597.17 504.021 596.604 505.789 596.151 507.589L596.063 507.928L595.981 507.779L591.453 511.374L587.178 514.857C587.178 514.857 577.721 519.437 576.555 520.598C575.39 521.759 575.001 521.436 573.967 521.694C572.934 521.952 572.799 522.662 572.477 522.597C572.155 522.533 571.569 523.5 571.122 523.371C570.675 523.242 569.699 523.758 569.049 523.887C568.399 524.016 563.799 525.972 563.799 525.972C560.947 524.553 553.241 525.133 553.241 525.133C553.241 525.133 550.714 523.65 550.002 525.133C549.807 525.555 549.497 525.912 549.107 526.163C548.717 526.414 548.264 526.549 547.801 526.552L544.728 525.242C544.728 525.161 544.728 525.076 544.752 524.994V524.943C544.776 524.75 544.806 524.566 544.837 524.39C546.402 523.769 547.79 522.769 548.877 521.479C549.963 520.19 550.714 518.651 551.064 517C551.413 515.349 551.349 513.637 550.878 512.017C550.406 510.397 549.542 508.919 548.363 507.714L548.095 507.456C548.41 507.308 548.707 507.123 548.979 506.906C549.068 506.849 549.134 506.764 549.169 506.665C549.178 506.631 549.18 506.596 549.176 506.561C549.171 506.526 549.16 506.492 549.142 506.461C549.115 506.378 549.072 506.301 549.013 506.236C548.955 506.171 548.883 506.12 548.803 506.085C547.868 505.579 546.835 505.745 546.026 504.934C545.839 504.749 545.694 504.525 545.602 504.279C545.512 504.013 545.512 503.726 545.602 503.46C545.829 502.856 546.561 502.442 546.517 501.79H546.486C546.486 501.753 546.486 501.715 546.486 501.678C545.719 501.989 544.894 502.13 544.068 502.092L544.22 501.413H544.278L544.359 501.053L544.301 501.07L544.325 500.955L542.049 501.566C541.967 501.601 541.878 501.617 541.79 501.611C541.701 501.606 541.614 501.58 541.537 501.535C541.452 501.432 541.391 501.31 541.361 501.179C541.165 500.7 540.531 500.548 540.034 500.683C539.549 500.866 539.093 501.117 538.679 501.427C537.205 502.326 535.406 502.445 533.692 502.663C531.979 502.88 530.156 503.25 528.95 504.486C527.351 506.136 527.372 508.733 526.373 510.8C526.185 511.131 526.032 511.48 525.915 511.842C525.812 512.387 525.822 512.948 525.942 513.489C526.186 515.078 526.454 516.728 527.297 518.089L527.206 517.98C527.307 518.159 527.42 518.336 527.545 518.51C528.151 519.365 529.004 520.061 529.651 520.886C529.611 520.808 529.56 520.737 529.516 520.659C529.88 521.074 530.167 521.551 530.363 522.068C530.586 522.706 530.634 523.426 530.901 524.03C530.991 524.266 531.121 524.485 531.288 524.675C531.499 524.889 531.757 525.051 532.042 525.149C532.326 525.246 532.629 525.277 532.927 525.239C532.648 525.972 532.308 526.68 531.911 527.357L531.86 527.445C531.689 527.437 531.517 527.457 531.352 527.503C530.6 527.642 528.026 529.859 528.026 529.859L523.429 533.933C516.499 539.365 518.053 547.801 518.053 547.801V552.079C518.053 552.079 516.698 556.658 518.053 561.245L517.925 565.237ZM528.046 565.302C528.046 565.302 530.444 563.367 529.601 562.206C529.33 561.832 529.221 561.048 529.198 560.169L532.321 567.121C532.321 567.121 534.201 570.153 533.228 571.508V571.531L529.502 567.186C529.502 567.186 529.343 565.302 528.046 565.302Z" fill="url(#paint2_linear)"/>
<path d="M595.325 510.182L597.358 514.158C598.005 514.103 598.643 513.97 599.258 513.76C600.231 513.467 601.132 512.971 601.901 512.305C602.67 511.639 603.289 510.817 603.719 509.894C605.541 505.854 600.586 500.049 599.18 499.288C597.774 498.528 598.411 500.826 597.358 503.362C596.695 505.079 596.142 506.837 595.701 508.624C595.471 509.547 595.325 510.182 595.325 510.182Z" fill="#CC818C"/>
<path d="M530.444 530.85L533.706 535.722C533.706 535.722 549.118 543.092 546.178 534.442C544.881 530.63 544.725 527.836 544.959 525.907C544.961 525.889 544.961 525.871 544.959 525.853C545.264 523.439 546.172 522.39 546.172 522.39C546.172 522.39 531.146 514.684 533.381 519.956C533.846 521.05 534.037 522.241 533.937 523.426C533.75 525.128 533.198 526.769 532.318 528.236C531.783 529.169 531.156 530.045 530.444 530.85Z" fill="#CC818C"/>
<path d="M535.116 627.292C535.116 627.292 532.897 636.605 533.836 638.156C534.774 639.708 534.686 643.113 534.686 643.113C534.686 643.113 536.478 656.444 537.162 656.957C537.72 657.455 538.207 658.026 538.612 658.654C538.612 658.654 537.392 661.673 538.124 662.918C538.234 663.113 538.406 663.266 538.612 663.353C539.753 663.835 543.974 661.693 546.379 660.379C546.679 660.215 546.907 659.944 547.016 659.619C547.106 659.362 547.117 659.083 547.048 658.82C546.978 658.557 546.831 658.32 546.626 658.142C546.769 657.852 546.809 657.521 546.737 657.206C546.665 656.891 546.487 656.61 546.233 656.41L545.603 655.918L545.749 655.745C545.939 655.52 546.053 655.241 546.076 654.948C546.099 654.654 546.03 654.361 545.877 654.109C545.6 653.647 545.332 652.829 545.261 651.393C545.092 648.062 544.245 646.779 544.245 646.779L544.749 631.553C544.703 630.728 544.703 629.9 544.749 629.075C544.834 628.134 546.413 628.756 546.67 628.498C546.928 628.24 546.965 627.024 547.649 626.681C547.889 626.559 548.1 626.131 548.269 625.629C548.566 624.669 548.626 623.65 548.442 622.662C548.398 622.426 548.404 622.184 548.458 621.95C548.512 621.716 548.614 621.496 548.757 621.304C549.522 620.285 549.268 616.775 549.268 616.775L550.447 609.449C552.32 615.665 554.705 623.154 555.494 623.707C556.849 624.648 556.686 625.928 556.686 625.928C555.579 627.286 556.009 633.196 556.009 633.196C556.009 633.196 556.009 649.515 556.808 650.629C557.608 651.742 559.179 655.154 559.179 655.154C559.179 655.154 554.61 659.228 558.204 661.286L558.241 661.309C561.91 663.346 569.5 657.636 569.5 657.636L568.704 656.842L568.474 656.607L569.355 655.249C570.235 653.712 566.784 650.805 566.784 650.805C566.784 650.805 567.705 647.214 567.366 647.044C567.028 646.874 566.784 643.625 566.784 643.625C566.784 643.625 567.62 631.831 567.282 630.725C567.126 630.226 567.37 629.706 567.685 629.255C568.152 628.585 568.382 627.779 568.339 626.963C568.315 626.284 568.416 625.524 568.901 625.001C569.917 623.887 568.901 619.104 568.901 619.104L568.047 612.779V602.717C568.052 600.785 567.708 598.869 567.031 597.061C566.504 595.596 566.179 594.065 566.066 592.512C565.788 589.273 564.033 586.123 562.882 584.33C562.262 583.383 561.801 582.813 561.801 582.813L534.52 581.743C534.52 581.743 534.073 582.959 533.643 584.656C533.548 585.023 533.453 585.413 533.365 585.82C532.796 588.448 532.45 591.704 533.605 593.537C533.762 593.785 533.903 594.044 534.025 594.311C535.587 597.641 534.52 601.827 534.52 601.827C534.52 601.827 535.875 611.313 536.478 612.851C536.901 613.94 536.512 615.461 536.247 616.245C536.121 616.627 536.056 617.025 536.054 617.427V620.791C536.054 620.791 535.377 623.612 535.716 624.38C536.054 625.147 535.116 627.292 535.116 627.292Z" fill="#444053"/>
<path opacity="0.1" d="M533.862 593.792C534.015 594.035 534.153 594.288 534.275 594.549L535.813 594.46C535.664 593.669 536.711 586.235 536.711 586.235L533.618 586.061C533.049 588.703 532.704 591.958 533.862 593.792Z" fill="black"/>
<path d="M533.598 593.53C533.755 593.779 533.896 594.037 534.018 594.304L535.556 594.216C535.407 593.425 536.45 585.99 536.45 585.99L533.358 585.814C532.795 588.438 532.45 591.7 533.598 593.53Z" fill="#444053"/>
<path opacity="0.05" d="M533.598 593.53C533.755 593.779 533.896 594.037 534.018 594.304L535.556 594.216C535.407 593.425 536.45 585.99 536.45 585.99L533.358 585.814C532.795 588.438 532.45 591.7 533.598 593.53Z" fill="black"/>
<path opacity="0.1" d="M538.124 662.918C538.235 663.113 538.406 663.266 538.612 663.353C539.753 663.835 543.974 661.693 546.379 660.379C546.679 660.215 546.907 659.944 547.016 659.619C545.661 659.367 544.75 660.895 544.75 660.895C544.521 660.753 544.266 660.658 544.001 660.615C543.735 660.572 543.464 660.583 543.202 660.646C542.941 660.709 542.694 660.824 542.477 660.983C542.26 661.142 542.077 661.343 541.938 661.574C540.763 663.305 538.249 662.576 538.249 662.576C538.249 662.576 538.199 662.711 538.124 662.918Z" fill="black"/>
<path d="M537.415 668.16C537.673 668.927 539.59 668.927 539.59 668.927C539.59 668.927 543.025 669.912 544.559 670.683C546.094 671.453 547.137 671.042 547.137 671.042C550.653 671.857 555.175 670.445 556.537 670.17C557.898 669.895 558.434 668.133 556.75 667.794C556.534 667.749 556.324 667.684 556.12 667.6C555.283 667.232 554.559 666.646 554.023 665.903C552.884 664.799 551.686 663.758 550.433 662.786C549.569 662.145 548.809 661.374 548.18 660.501C546.178 658.729 544.749 661.18 544.749 661.18C544.52 661.038 544.266 660.943 544 660.9C543.735 660.857 543.463 660.868 543.202 660.931C542.94 660.994 542.694 661.109 542.477 661.268C542.26 661.427 542.076 661.628 541.937 661.859C540.762 663.587 538.249 662.857 538.249 662.857C538.249 662.857 537.798 664.015 537.588 664.847C537.534 665.057 537.48 665.322 537.432 665.617C537.297 666.466 537.226 667.583 537.415 668.16Z" fill="#FF748F"/>
<path d="M543.279 662.752C543.408 662.752 543.512 662.647 543.512 662.518C543.512 662.388 543.408 662.284 543.279 662.284C543.15 662.284 543.045 662.388 543.045 662.518C543.045 662.647 543.15 662.752 543.279 662.752Z" fill="#575988"/>
<path d="M545.281 664.633C545.41 664.633 545.514 664.528 545.514 664.399C545.514 664.269 545.41 664.164 545.281 664.164C545.152 664.164 545.047 664.269 545.047 664.399C545.047 664.528 545.152 664.633 545.281 664.633Z" fill="#575988"/>
<path d="M547.317 666.32C547.446 666.32 547.55 666.215 547.55 666.086C547.55 665.957 547.446 665.852 547.317 665.852C547.188 665.852 547.083 665.957 547.083 666.086C547.083 666.215 547.188 666.32 547.317 666.32Z" fill="#575988"/>
<path d="M546.263 665.566C546.392 665.566 546.497 665.462 546.497 665.332C546.497 665.203 546.392 665.098 546.263 665.098C546.134 665.098 546.029 665.203 546.029 665.332C546.029 665.462 546.134 665.566 546.263 665.566Z" fill="#575988"/>
<path d="M544.238 663.631C544.367 663.631 544.471 663.527 544.471 663.397C544.471 663.268 544.367 663.163 544.238 663.163C544.109 663.163 544.004 663.268 544.004 663.397C544.004 663.527 544.109 663.631 544.238 663.631Z" fill="#575988"/>
<path d="M537.415 668.16C537.673 668.927 539.59 668.927 539.59 668.927C539.59 668.927 543.025 669.912 544.559 670.683C546.094 671.453 547.137 671.042 547.137 671.042C550.653 671.857 555.175 670.445 556.537 670.17C557.898 669.895 558.434 668.133 556.75 667.794C556.534 667.749 556.324 667.684 556.12 667.6C554.632 668.111 553.078 668.406 551.507 668.476C548.031 668.625 545.281 668.476 545.281 668.476L541.765 667.342C541.098 666.939 540.359 666.672 539.59 666.554C538.845 666.48 537.934 665.943 537.432 665.614C537.297 666.466 537.226 667.583 537.415 668.16Z" fill="#DCE6F2"/>
<path opacity="0.5" d="M546.168 670.37C546.364 670.37 546.559 670.351 546.751 670.313L546.7 670.061C545.984 670.17 545.252 670.068 544.593 669.766C544.278 669.644 543.967 669.494 543.662 669.352C543.303 669.182 542.93 669.012 542.551 668.866L542.212 668.744C542.022 668.68 541.826 668.615 541.643 668.537C541.535 668.493 541.433 668.442 541.328 668.391C541.078 668.26 540.813 668.16 540.539 668.092C540.397 668.065 540.253 668.045 540.108 668.035C539.978 668.026 539.848 668.01 539.719 667.987C539.463 667.924 539.215 667.832 538.981 667.712C538.728 667.584 538.462 667.484 538.188 667.417L537.998 667.386C537.798 667.381 537.605 667.31 537.449 667.182L537.26 667.356C537.453 667.528 537.699 667.627 537.958 667.637L538.137 667.668C538.392 667.734 538.639 667.826 538.876 667.943C539.127 668.073 539.393 668.172 539.668 668.238C539.807 668.263 539.947 668.28 540.088 668.289C540.222 668.3 540.356 668.318 540.488 668.343C540.742 668.407 540.988 668.502 541.22 668.625C541.325 668.676 541.433 668.727 541.541 668.771C541.734 668.856 541.938 668.924 542.131 668.989L542.469 669.107C542.839 669.243 543.204 669.416 543.56 669.583C543.916 669.749 544.183 669.878 544.509 670.004C545.034 670.229 545.597 670.354 546.168 670.37Z" fill="#575988"/>
<path opacity="0.1" d="M545.346 627.91C545.346 627.91 543.577 625.347 540.549 625.368C537.521 625.388 536.224 625.028 536.224 625.028C536.224 625.028 538.161 626.182 539.506 626.332C540.851 626.481 545.346 627.91 545.346 627.91Z" fill="black"/>
<path opacity="0.1" d="M544.322 628.498C544.322 628.498 542.723 627.387 541.809 627.343C540.894 627.299 540.115 627.214 540.115 627.214C540.545 627.514 541.019 627.743 541.521 627.893C542.276 628.124 544.322 628.498 544.322 628.498Z" fill="black"/>
<path opacity="0.1" d="M543.98 629.278C543.98 629.278 541.572 629.469 541.552 630.11L543.98 629.278Z" fill="black"/>
<path opacity="0.1" d="M566.418 593.245C566.293 593.269 564.138 591.004 563.989 590.105C563.87 589.539 563.533 589.044 563.051 588.726C563.051 588.726 561.666 589.283 562.902 590.987C564.138 592.692 566.418 593.245 566.418 593.245Z" fill="black"/>
<path opacity="0.1" d="M533.388 519.956C533.879 521.117 534.309 521.205 534.218 522.333C534.789 522.938 535.447 523.456 536.169 523.87C537.693 524.777 539.353 526.552 541.25 526.552C542.525 526.556 543.789 526.318 544.976 525.85C545.281 523.436 546.188 522.387 546.188 522.387C546.188 522.387 531.152 514.684 533.388 519.956Z" fill="black"/>
<path d="M531.085 515.855C531.085 517.869 531.681 519.839 532.798 521.513C533.914 523.188 535.501 524.494 537.358 525.265C539.215 526.035 541.258 526.237 543.229 525.844C545.201 525.451 547.011 524.481 548.432 523.057C549.854 521.632 550.821 519.818 551.213 517.842C551.606 515.866 551.404 513.819 550.635 511.958C549.866 510.097 548.564 508.506 546.892 507.387C545.221 506.268 543.257 505.67 541.247 505.67C538.552 505.67 535.967 506.743 534.061 508.653C532.156 510.563 531.085 513.154 531.085 515.855Z" fill="#CC818C"/>
<path opacity="0.1" d="M530.444 530.85L533.706 535.722C533.706 535.722 549.118 543.092 546.178 534.442C544.881 530.63 544.725 527.836 544.959 525.907H544.935C544.752 526.546 544.649 527.205 544.627 527.87C544.58 529.2 544.546 530.881 541.24 531.438C535.752 532.364 532.802 528.922 532.287 528.246C531.762 529.174 531.145 530.047 530.444 530.85Z" fill="black"/>
<path opacity="0.1" d="M595.325 510.182L597.358 514.158C598.005 514.103 598.643 513.97 599.258 513.76L599.434 513.547C598.604 513.866 595.789 508.546 595.789 508.546L595.701 508.617C595.471 509.547 595.325 510.182 595.325 510.182Z" fill="black"/>
<path opacity="0.1" d="M533.643 584.653C540.224 587.515 562.997 585.074 562.997 585.074C562.926 584.831 562.887 584.58 562.882 584.327C562.262 583.38 561.801 582.809 561.801 582.809L534.52 581.74C534.52 581.74 534.073 582.955 533.643 584.653Z" fill="black"/>
<path d="M544.932 526.152L547.98 527.455C548.439 527.452 548.888 527.317 549.273 527.067C549.658 526.817 549.964 526.462 550.155 526.043C550.86 524.57 553.353 526.043 553.353 526.043C553.353 526.043 560.964 525.466 563.775 526.878C563.775 526.878 568.318 524.953 568.958 524.841C569.598 524.729 570.557 524.2 570.99 524.329C571.424 524.458 572.006 523.494 572.345 523.558C572.684 523.623 572.792 522.916 573.819 522.662C574.845 522.407 575.224 522.726 576.376 521.572C577.528 520.418 586.877 515.869 586.877 515.869L591.07 512.392L595.545 508.804C595.545 508.804 598.36 514.124 599.193 513.801L590.687 524.057C590.687 524.057 584.546 529.441 580.326 531.186C576.105 532.931 576.427 533.427 576.427 533.427C576.427 533.427 563.636 539.966 561.651 539.837C559.667 539.708 560.053 553.233 560.886 555.412C561.719 557.592 563.067 573.344 563.067 573.344C563.067 573.344 564.344 576.678 563.003 578.986C563.003 578.986 562.685 583.739 563.003 584.561C563.003 584.561 540.088 587.019 533.584 584.113C533.584 584.113 532.626 573.473 533.584 572.129C534.543 570.784 532.69 567.77 532.69 567.77L528.598 558.604L518.623 548.541C518.623 548.541 517.088 540.146 523.931 534.761L528.463 530.725C528.463 530.725 531.003 528.521 531.745 528.382C532.487 528.243 532.216 528.382 532.216 528.382C532.216 528.382 535.176 532.711 541.253 531.685C544.546 531.129 544.583 529.445 544.641 528.117C544.658 527.453 544.756 526.793 544.932 526.152Z" fill="#67647E"/>
<path opacity="0.1" d="M532.43 560.654C532.43 560.654 546.497 561.231 549.312 565.655C549.312 565.655 545.667 563.923 542.405 564.436C539.143 564.949 532.43 560.654 532.43 560.654Z" fill="black"/>
<path opacity="0.1" d="M547.967 576.101C547.967 576.101 541.318 576.549 539.909 575.14C538.5 573.731 538.5 572.896 538.5 572.896L547.967 576.101Z" fill="black"/>
<path opacity="0.1" d="M531.085 547.068C531.085 547.068 536.715 553.732 529.869 556.618L531.085 547.068Z" fill="black"/>
<path opacity="0.1" d="M564.402 534.184C564.402 534.184 562.37 538.37 561.333 538.648L564.402 534.184Z" fill="black"/>
<path opacity="0.1" d="M571.309 532.388C571.309 532.388 566.194 537.005 565.235 537.453C565.235 537.453 570.543 532.388 571.309 532.388Z" fill="black"/>
<path opacity="0.1" d="M550.91 527.968C550.91 527.968 555.832 535.338 552.634 539.823C552.634 539.823 554.426 534.503 550.91 527.968Z" fill="black"/>
<path d="M538.5 583.794L540.004 585.213L540.214 585.41L541.958 587.06C542.084 587.155 542.206 587.25 542.328 587.335C549.424 592.427 550.847 584.69 550.847 584.69C550.847 584.69 553.98 586.727 554.427 585.074C554.874 583.42 547.148 581.037 545.986 581.166C545.884 581.178 545.78 581.178 545.678 581.166C545.12 581.069 544.583 580.879 544.089 580.602L543.75 580.416C543.103 580.052 542.602 579.693 542.602 579.693L538.5 583.794Z" fill="#CC818C"/>
<path opacity="0.1" d="M530.831 515.855C530.83 517.621 531.287 519.357 532.158 520.893C533.028 522.429 534.282 523.711 535.797 524.614C535.938 524.376 536.063 524.129 536.169 523.874C536.535 523.018 536.755 522.108 537.125 521.256C537.533 520.324 538.113 519.477 538.835 518.761C538.956 518.619 539.111 518.512 539.286 518.449C539.451 518.426 539.619 518.438 539.779 518.482C539.94 518.526 540.09 518.603 540.221 518.707C540.651 519 541.131 519.211 541.637 519.331C541.891 519.387 542.155 519.377 542.404 519.301C542.653 519.226 542.878 519.088 543.059 518.9C543.455 518.425 543.398 517.729 543.286 517.121C543.035 515.794 542.609 514.49 542.609 513.143C542.609 511.795 543.12 510.338 544.302 509.673C545.319 509.082 546.616 509.232 547.761 508.916C547.938 508.868 548.113 508.808 548.282 508.736C546.871 507.281 545.058 506.282 543.077 505.866C541.095 505.451 539.035 505.638 537.16 506.404C535.285 507.17 533.682 508.48 532.554 510.166C531.427 511.852 530.829 513.836 530.834 515.865L530.831 515.855Z" fill="black"/>
<path d="M548.966 507.117C549.152 507.215 549.352 507.392 549.305 507.595C549.271 507.693 549.206 507.777 549.119 507.833C548.645 508.218 548.097 508.5 547.51 508.661C546.365 508.974 545.081 508.828 544.048 509.415C542.879 510.094 542.354 511.537 542.354 512.885C542.354 514.232 542.774 515.539 543.032 516.863C543.147 517.471 543.204 518.167 542.808 518.642C542.628 518.83 542.402 518.969 542.153 519.044C541.904 519.12 541.639 519.13 541.385 519.073C540.878 518.956 540.397 518.745 539.966 518.452C539.836 518.348 539.687 518.271 539.527 518.226C539.367 518.181 539.199 518.169 539.035 518.191C538.86 518.257 538.705 518.364 538.581 518.503C537.866 519.223 537.291 520.07 536.887 521.002C536.514 521.85 536.294 522.76 535.932 523.616C535.612 524.497 535.011 525.246 534.221 525.748C533.412 526.196 532.284 526.162 531.66 525.476C531.037 524.79 531.081 523.826 530.786 522.988C530.278 521.535 528.859 520.611 527.972 519.369C526.979 517.957 526.691 516.181 526.434 514.477C526.313 513.939 526.304 513.382 526.407 512.84C526.524 512.481 526.675 512.133 526.857 511.802C527.843 509.765 527.826 507.171 529.404 505.531C530.587 504.302 532.385 503.925 534.079 503.718C535.773 503.511 537.548 503.379 539.001 502.493C539.407 502.182 539.857 501.933 540.335 501.753C540.826 501.617 541.45 501.753 541.643 502.245C541.674 502.376 541.734 502.498 541.819 502.601C541.894 502.645 541.979 502.671 542.066 502.675C542.153 502.68 542.24 502.664 542.32 502.629L544.573 502.024L544.315 503.162C545.126 503.199 545.935 503.058 546.686 502.751C546.73 503.392 546.009 503.81 545.782 504.411C545.703 504.686 545.702 504.979 545.78 505.255C545.858 505.531 546.011 505.779 546.222 505.973C547.025 506.77 548.045 506.621 548.966 507.117Z" fill="#585268"/>
<path opacity="0.1" d="M558.092 660.257L558.183 661.275L558.221 661.299C561.889 663.336 569.48 657.626 569.48 657.626L568.684 656.831C568.557 656.977 568.461 657.148 568.403 657.332C568.345 657.517 568.325 657.712 568.345 657.904L566.797 657.989L564.941 659.995C564.941 659.995 559.928 660.579 558.569 660.253L558.092 660.257Z" fill="black"/>
<path d="M558.732 665.841C561.12 666.374 569.48 666.334 569.48 666.334L574.168 667.081C574.168 667.081 582.203 667.848 583.097 665.349C583.991 662.851 582.392 663 582.392 663H582.331L578.985 662.728C578.985 662.728 574.744 661.082 573.186 659.948C571.957 658.989 570.796 657.947 569.71 656.828C569.71 656.828 568.315 656.556 568.339 658.186L566.791 658.271L564.934 660.281C564.934 660.281 559.921 660.861 558.563 660.535H558.092L558.309 663.013L558.248 663.088C557.936 663.465 556.602 665.356 558.732 665.841Z" fill="#FF748F"/>
<path d="M567.386 659.843C567.515 659.843 567.62 659.738 567.62 659.608C567.62 659.479 567.515 659.374 567.386 659.374C567.257 659.374 567.152 659.479 567.152 659.608C567.152 659.738 567.257 659.843 567.386 659.843Z" fill="#575988"/>
<path d="M573.399 662.457C573.528 662.457 573.632 662.352 573.632 662.222C573.632 662.093 573.528 661.988 573.399 661.988C573.27 661.988 573.165 662.093 573.165 662.222C573.165 662.352 573.27 662.457 573.399 662.457Z" fill="#575988"/>
<path d="M576.494 663.397C576.624 663.397 576.728 663.292 576.728 663.163C576.728 663.034 576.624 662.929 576.494 662.929C576.365 662.929 576.261 663.034 576.261 663.163C576.261 663.292 576.365 663.397 576.494 663.397Z" fill="#575988"/>
<path d="M571.821 661.958C571.95 661.958 572.054 661.853 572.054 661.723C572.054 661.594 571.95 661.489 571.821 661.489C571.692 661.489 571.587 661.594 571.587 661.723C571.587 661.853 571.692 661.958 571.821 661.958Z" fill="#575988"/>
<path d="M574.953 662.929C575.083 662.929 575.187 662.824 575.187 662.694C575.187 662.565 575.083 662.46 574.953 662.46C574.824 662.46 574.72 662.565 574.72 662.694C574.72 662.824 574.824 662.929 574.953 662.929Z" fill="#575988"/>
<path d="M570.225 661.214C570.354 661.214 570.459 661.109 570.459 660.98C570.459 660.851 570.354 660.746 570.225 660.746C570.096 660.746 569.991 660.851 569.991 660.98C569.991 661.109 570.096 661.214 570.225 661.214Z" fill="#575988"/>
<path d="M568.65 660.528C568.779 660.528 568.883 660.424 568.883 660.294C568.883 660.165 568.779 660.06 568.65 660.06C568.521 660.06 568.416 660.165 568.416 660.294C568.416 660.424 568.521 660.528 568.65 660.528Z" fill="#575988"/>
<path d="M558.732 665.841C561.12 666.374 569.48 666.334 569.48 666.334L574.168 667.081C574.168 667.081 582.203 667.848 583.097 665.349C583.991 662.851 582.392 663 582.392 663H582.331C581.817 663.662 580.79 664.419 578.771 664.456L572.993 664.691L567.004 664.263C567.004 664.263 561.398 664.093 560.483 663.903C559.715 663.695 558.967 663.419 558.248 663.078C557.936 663.465 556.602 665.356 558.732 665.841Z" fill="#DCE6F2"/>
<path opacity="0.5" d="M573.713 666.52C574.033 666.522 574.352 666.482 574.662 666.402L574.594 666.154C573.808 666.324 572.991 666.286 572.223 666.045C571.939 665.974 571.657 665.889 571.38 665.804C570.868 665.641 570.346 665.51 569.818 665.41C568.96 665.299 568.093 665.274 567.23 665.336H567.047C564.483 665.47 561.911 665.357 559.368 664.996C558.796 664.901 558.145 664.765 557.729 664.338L557.546 664.514C558.017 665 558.715 665.149 559.328 665.247C561.887 665.613 564.476 665.727 567.057 665.587H567.24C568.086 665.527 568.936 665.552 569.777 665.662C570.294 665.758 570.805 665.887 571.305 666.049C571.59 666.133 571.874 666.215 572.159 666.29C572.665 666.432 573.188 666.509 573.713 666.52Z" fill="#575988"/>
<path opacity="0.1" d="M538.5 583.794L540.004 585.213L543.73 580.412C543.083 580.049 542.582 579.689 542.582 579.689L538.5 583.794Z" fill="black"/>
<path d="M521.556 544.44L518.616 548.541V552.836C518.616 552.836 517.261 557.385 518.616 561.937L518.467 565.909C518.467 565.909 519.893 569.562 519.381 570.462C519.381 570.462 519.639 573.154 523.09 575.011C526.542 576.868 530.444 581.309 530.444 581.309C530.444 581.309 531.918 584.13 535.881 583.488L539.654 585.091L544.004 579.516L538.12 576.311C538.12 576.311 536.088 573.555 534.858 573.684L529.872 567.834C529.872 567.834 529.747 565.974 528.466 565.974C528.466 565.974 530.837 564.052 530.001 562.898C529.164 561.744 529.872 556.618 529.872 556.618L521.556 544.44Z" fill="#67647E"/>
<path opacity="0.1" d="M527.057 563.153C527.057 563.153 520.34 563.027 519.51 564.755C518.68 566.483 525.011 562.192 527.057 563.153Z" fill="black"/>
<path opacity="0.1" d="M540.187 585.074C540.185 585.187 540.194 585.301 540.214 585.413C540.291 585.929 540.544 586.402 540.929 586.753C541.314 587.103 541.808 587.31 542.327 587.338H542.449C542.746 587.338 543.04 587.279 543.313 587.166C543.587 587.052 543.836 586.885 544.046 586.675C544.255 586.464 544.421 586.215 544.535 585.94C544.648 585.665 544.706 585.371 544.705 585.074C544.706 584.823 544.663 584.574 544.58 584.337C545.647 583.478 545.705 581.933 545.677 581.163C545.12 581.066 544.583 580.875 544.089 580.599C543.809 581.399 543.435 582.163 542.974 582.874C542.642 582.792 542.296 582.788 541.962 582.86C541.628 582.933 541.314 583.081 541.046 583.293C540.777 583.505 540.56 583.775 540.411 584.084C540.262 584.392 540.186 584.731 540.187 585.074Z" fill="black"/>
<path d="M543.885 580.097C543.885 580.097 545.399 580.436 545.399 580.715C545.399 580.993 545.738 583.495 544.075 584.52C542.411 585.545 542.584 583.088 542.584 583.088C542.584 583.088 544.014 580.888 543.885 580.097Z" fill="#575988"/>
<path d="M542.192 587.338C543.44 587.338 544.451 586.324 544.451 585.074C544.451 583.823 543.44 582.809 542.192 582.809C540.944 582.809 539.933 583.823 539.933 585.074C539.933 586.324 540.944 587.338 542.192 587.338Z" fill="#E4AAB4"/>
<path d="M542.192 587.019C543.264 587.019 544.133 586.148 544.133 585.074C544.133 583.999 543.264 583.128 542.192 583.128C541.12 583.128 540.251 583.999 540.251 585.074C540.251 586.148 541.12 587.019 542.192 587.019Z" fill="#DCE6F2"/>
<path opacity="0.1" d="M550.995 585.949C550.995 585.949 546.219 589.925 540.081 587.402V589.327C540.081 589.327 544.173 592.145 547.872 590.438C551.571 588.73 550.995 585.949 550.995 585.949Z" fill="black"/>
<path opacity="0.1" d="M550.995 585.437C550.995 585.437 546.219 589.409 540.081 586.89V588.811C540.081 588.811 544.173 591.633 547.872 589.925C551.571 588.217 550.995 585.437 550.995 585.437Z" fill="black"/>
<path d="M550.995 585.437C550.995 585.437 546.219 589.409 540.081 586.89V588.811C540.081 588.811 544.173 591.633 547.872 589.925C551.571 588.217 550.995 585.437 550.995 585.437Z" fill="#444053"/>
<path opacity="0.05" d="M550.873 585.437C550.873 585.437 546.097 589.409 539.959 586.89V588.811C539.959 588.811 544.051 591.633 547.75 589.925C551.449 588.217 550.873 585.437 550.873 585.437Z" fill="black"/>
<path opacity="0.1" d="M566.001 656.814C566.001 656.814 559.606 657.992 558.668 658.247C557.73 658.502 558.925 658.953 558.925 658.953C558.925 658.953 564.762 657.904 566.001 656.814Z" fill="black"/>
<path opacity="0.1" d="M566.15 653.42C566.045 653.42 561.804 652.221 560.886 650.171L566.15 653.42Z" fill="black"/>
<path opacity="0.1" d="M559.962 628.891C559.962 628.891 558.244 631.156 557.133 631.095C556.022 631.034 558.952 628.807 559.962 628.891Z" fill="black"/>
<path opacity="0.1" d="M559.003 632.653C559.003 632.653 558.278 634.255 557.211 633.743L559.003 632.653Z" fill="black"/>
<path opacity="0.05" d="M554.982 597.465L550.446 609.452C550.446 609.452 549.806 601.739 551.158 599.431C551.543 598.772 552.107 598.238 552.784 597.889C553.462 597.541 554.224 597.394 554.982 597.465Z" fill="black"/>
<g opacity="0.1">
<path opacity="0.1" d="M543.818 502.489L543.859 502.316L544.587 502.119L544.506 502.479C544.277 502.496 544.048 502.5 543.818 502.489Z" fill="black"/>
<path opacity="0.1" d="M545.82 505.372L545.745 505.3C545.533 505.108 545.38 504.859 545.302 504.583C545.224 504.307 545.225 504.014 545.305 503.739C545.395 503.528 545.517 503.334 545.667 503.162C546.027 503.092 546.378 502.987 546.717 502.849C546.761 503.491 546.04 503.908 545.816 504.509C545.719 504.789 545.721 505.093 545.82 505.372Z" fill="black"/>
<path opacity="0.1" d="M533.728 525.076C534.511 524.571 535.107 523.822 535.421 522.944C535.784 522.091 536.007 521.182 536.376 520.33C536.78 519.399 537.354 518.552 538.07 517.834C538.192 517.693 538.349 517.586 538.524 517.522C538.689 517.499 538.857 517.51 539.018 517.554C539.179 517.599 539.329 517.676 539.459 517.78C539.888 518.073 540.368 518.284 540.875 518.401C541.129 518.458 541.393 518.449 541.642 518.374C541.891 518.299 542.117 518.161 542.297 517.973C542.694 517.498 542.636 516.799 542.521 516.191C542.274 514.867 541.843 513.56 541.843 512.212C541.843 510.865 542.352 509.412 543.52 508.746C544.553 508.155 545.837 508.301 546.982 507.989C547.57 507.829 548.118 507.548 548.591 507.164L548.679 507.083C548.776 507.121 548.869 507.165 548.96 507.215C549.143 507.313 549.343 507.49 549.299 507.694C549.262 507.791 549.196 507.874 549.109 507.931C548.636 508.317 548.088 508.599 547.5 508.76C546.355 509.072 545.072 508.923 544.038 509.513C542.87 510.192 542.345 511.635 542.362 512.983C542.379 514.331 542.778 515.638 543.039 516.962C543.154 517.569 543.212 518.265 542.816 518.741C542.635 518.929 542.41 519.067 542.161 519.143C541.911 519.218 541.647 519.228 541.393 519.172C540.887 519.053 540.407 518.843 539.977 518.551C539.847 518.446 539.697 518.37 539.536 518.325C539.376 518.28 539.208 518.268 539.042 518.289C538.867 518.354 538.712 518.461 538.588 518.602C537.873 519.321 537.299 520.169 536.895 521.1C536.525 521.949 536.302 522.859 535.939 523.714C535.625 524.592 535.029 525.34 534.246 525.843C533.433 526.294 532.308 526.26 531.682 525.571C531.516 525.383 531.386 525.165 531.299 524.93C531.644 525.191 532.059 525.345 532.491 525.371C532.923 525.397 533.353 525.294 533.728 525.076Z" fill="black"/>
<path opacity="0.1" d="M530.069 521.817C529.429 521.009 528.589 520.316 527.989 519.464C527.867 519.296 527.754 519.121 527.65 518.941C528.433 519.929 529.493 520.727 530.069 521.817Z" fill="black"/>
</g>
<g opacity="0.1">
<path opacity="0.2" d="M698.735 500.707L609.975 518.445V468.425L689.166 452.598L698.735 500.707Z" fill="black"/>
</g>
<g opacity="0.2">
<path opacity="0.2" d="M762.732 461.612H626.075V510.664H762.732V461.612Z" fill="#5D2C8F"/>
<path opacity="0.2" d="M762.732 461.616H758.667V461.955H762.732V461.616ZM754.602 461.616H750.537V461.955H754.602V461.616ZM746.473 461.616H742.408V461.955H746.473V461.616ZM738.343 461.616H734.278V461.955H738.343V461.616ZM730.214 461.616H726.149V461.955H730.214V461.616ZM722.084 461.616H718.019V461.955H722.084V461.616ZM713.955 461.616H709.89V461.955H713.955V461.616ZM705.825 461.616H701.76V461.955H705.825V461.616ZM697.696 461.616H693.631V461.955H697.696V461.616ZM689.566 461.616H685.501V461.955H689.566V461.616ZM681.437 461.616H677.372V461.955H681.437V461.616ZM673.307 461.616H669.242V461.955H673.307V461.616ZM665.178 461.616H661.113V461.955H665.178V461.616ZM657.048 461.616H652.983V461.955H657.048V461.616ZM648.919 461.616H644.854V461.955H648.919V461.616ZM640.789 461.616H636.724V461.955H640.789V461.616ZM632.66 461.616H628.595V461.955H632.66V461.616ZM626.41 463.167H626.071V467.241H626.41V463.167ZM626.41 471.315H626.071V475.389H626.41V471.315ZM626.41 479.463H626.071V483.537H626.41V479.463ZM626.41 487.61H626.071V491.684H626.41V487.61ZM626.41 495.758H626.071V499.832H626.41V495.758ZM626.41 503.906H626.071V507.98H626.41V503.906ZM631.511 510.332H627.447V510.672H631.511V510.332ZM639.641 510.332H635.576V510.672H639.641V510.332ZM647.77 510.332H643.706V510.672H647.77V510.332ZM655.9 510.332H651.835V510.672H655.9V510.332ZM664.029 510.332H659.965V510.672H664.029V510.332ZM672.159 510.332H668.094V510.672H672.159V510.332ZM680.288 510.332H676.224V510.672H680.288V510.332ZM688.418 510.332H684.353V510.672H688.418V510.332ZM696.547 510.332H692.483V510.672H696.547V510.332ZM704.677 510.332H700.612V510.672H704.677V510.332ZM712.806 510.332H708.742V510.672H712.806V510.332ZM720.936 510.332H716.871V510.672H720.936V510.332ZM729.065 510.332H725.001V510.672H729.065V510.332ZM737.195 510.332H733.13V510.672H737.195V510.332ZM745.324 510.332H741.26V510.672H745.324V510.332ZM753.454 510.332H749.389V510.672H753.454V510.332ZM761.583 510.332H757.519V510.672H761.583V510.332ZM762.728 503.672H762.39V507.746H762.728V503.672ZM762.728 495.524H762.39V499.598H762.728V495.524ZM762.728 487.376H762.39V491.45H762.728V487.376ZM762.728 479.228H762.39V483.302H762.728V479.228ZM762.728 471.081H762.39V475.155H762.728V471.081ZM762.728 462.933H762.39V467.007H762.728V462.933Z" fill="#5D2C8F"/>
</g>
<g opacity="0.2">
<path opacity="0.2" d="M762.732 588.044H626.075V637.097H762.732V588.044Z" fill="#5D2C8F"/>
<path opacity="0.2" d="M762.732 588.048H758.667V588.388H762.732V588.048ZM754.602 588.048H750.537V588.388H754.602V588.048ZM746.473 588.048H742.408V588.388H746.473V588.048ZM738.343 588.048H734.278V588.388H738.343V588.048ZM730.214 588.048H726.149V588.388H730.214V588.048ZM722.084 588.048H718.019V588.388H722.084V588.048ZM713.955 588.048H709.89V588.388H713.955V588.048ZM705.825 588.048H701.76V588.388H705.825V588.048ZM697.696 588.048H693.631V588.388H697.696V588.048ZM689.566 588.048H685.501V588.388H689.566V588.048ZM681.437 588.048H677.372V588.388H681.437V588.048ZM673.307 588.048H669.242V588.388H673.307V588.048ZM665.178 588.048H661.113V588.388H665.178V588.048ZM657.048 588.048H652.983V588.388H657.048V588.048ZM648.919 588.048H644.854V588.388H648.919V588.048ZM640.789 588.048H636.724V588.388H640.789V588.048ZM632.66 588.048H628.595V588.388H632.66V588.048ZM626.41 589.596H626.071V593.67H626.41V589.596ZM626.41 597.744H626.071V601.818H626.41V597.744ZM626.41 605.892H626.071V609.966H626.41V605.892ZM626.41 614.04H626.071V618.114H626.41V614.04ZM626.41 622.187H626.071V626.261H626.41V622.187ZM626.41 630.335H626.071V634.409H626.41V630.335ZM631.511 636.762H627.447V637.101H631.511V636.762ZM639.641 636.762H635.576V637.101H639.641V636.762ZM647.77 636.762H643.706V637.101H647.77V636.762ZM655.9 636.762H651.835V637.101H655.9V636.762ZM664.029 636.762H659.965V637.101H664.029V636.762ZM672.159 636.762H668.094V637.101H672.159V636.762ZM680.288 636.762H676.224V637.101H680.288V636.762ZM688.418 636.762H684.353V637.101H688.418V636.762ZM696.547 636.762H692.483V637.101H696.547V636.762ZM704.677 636.762H700.612V637.101H704.677V636.762ZM712.806 636.762H708.742V637.101H712.806V636.762ZM720.936 636.762H716.871V637.101H720.936V636.762ZM729.065 636.762H725.001V637.101H729.065V636.762ZM737.195 636.762H733.13V637.101H737.195V636.762ZM745.324 636.762H741.26V637.101H745.324V636.762ZM753.454 636.762H749.389V637.101H753.454V636.762ZM761.583 636.762H757.519V637.101H761.583V636.762ZM762.728 630.101H762.39V634.175H762.728V630.101ZM762.728 621.953H762.39V626.027H762.728V621.953ZM762.728 613.805H762.39V617.879H762.728V613.805ZM762.728 605.658H762.39V609.732H762.728V605.658ZM762.728 597.51H762.39V601.584H762.728V597.51ZM762.728 589.362H762.39V593.436H762.728V589.362Z" fill="#5D2C8F"/>
</g>
<path d="M683.471 449.235L549.454 476.025L559.028 524.131L693.045 497.34L683.471 449.235Z" fill="#F6F7F9"/>
<path opacity="0.4" d="M683.471 449.235L549.454 476.025L559.028 524.131L693.045 497.34L683.471 449.235Z" fill="#5D2C8F"/>
<path d="M602.827 474.546C602.393 475.304 602.219 476.185 602.333 477.052C603.194 476.86 603.946 476.339 604.43 475.6C604.914 474.86 605.091 473.961 604.924 473.093C604.085 473.334 603.349 473.845 602.827 474.546Z" fill="#F6F7F9"/>
<path d="M655.784 465.037C656.32 465.727 657.068 466.22 657.912 466.442C658.06 465.571 657.864 464.676 657.364 463.948C656.864 463.219 656.101 462.715 655.236 462.542C655.141 463.411 655.333 464.288 655.784 465.037Z" fill="#F6F7F9"/>
<path d="M636.257 464.548C636.149 465.138 636.237 465.748 636.508 466.283C637.022 465.961 637.39 465.451 637.534 464.862C637.679 464.272 637.587 463.649 637.28 463.126C636.793 463.475 636.433 463.974 636.257 464.548Z" fill="#F6F7F9"/>
<path d="M611.536 487.504C611.428 488.096 611.516 488.706 611.787 489.243C612.301 488.92 612.67 488.41 612.814 487.82C612.958 487.229 612.867 486.606 612.559 486.082C612.072 486.431 611.713 486.931 611.536 487.504Z" fill="#F6F7F9"/>
<path d="M624.378 491.796C624.674 492.318 625.134 492.728 625.685 492.963C625.873 492.386 625.828 491.757 625.561 491.212C625.293 490.666 624.824 490.247 624.252 490.044C624.101 490.626 624.145 491.241 624.378 491.796Z" fill="#F6F7F9"/>
<path d="M619.662 474.645C619.813 475.507 620.243 476.295 620.885 476.889C621.424 476.188 621.669 475.304 621.568 474.426C621.467 473.547 621.027 472.742 620.343 472.183C619.853 472.907 619.614 473.772 619.662 474.645Z" fill="#F6F7F9"/>
<path d="M635.86 475.432C635.442 476.2 635.288 477.083 635.42 477.948C636.278 477.738 637.02 477.2 637.488 476.45C637.956 475.7 638.113 474.796 637.927 473.932C637.092 474.19 636.366 474.718 635.86 475.432Z" fill="#F6F7F9"/>
<path d="M671.139 496.169C678.516 494.694 684.295 492.485 684.046 491.235C683.797 489.984 677.615 490.166 670.238 491.641C662.861 493.116 657.083 495.325 657.331 496.575C657.58 497.825 663.762 497.643 671.139 496.169Z" fill="#F6F7F9"/>
<path d="M675.471 489.114C675.982 488.495 676.291 487.734 676.359 486.934C676.359 486.136 675.864 485.284 675.078 485.148C674.201 484.999 673.439 485.742 672.894 486.449C672.348 487.155 671.715 487.959 670.824 488.01C671.189 487.517 671.421 486.937 671.496 486.327C671.571 485.717 671.486 485.098 671.251 484.53C671.165 484.294 671.016 484.085 670.821 483.926C670.272 483.529 669.489 483.902 669.022 484.395C667.538 485.956 667.525 488.407 667.935 490.526C667.596 489.796 667.596 488.971 667.437 488.187C667.277 487.403 666.891 486.581 666.146 486.292C665.693 486.151 665.209 486.135 664.747 486.245C663.965 486.37 663.114 486.622 662.715 487.297C662.197 488.136 662.603 489.287 663.331 489.952C664.06 490.618 665.025 490.93 665.94 491.31C666.659 491.566 667.312 491.982 667.85 492.525C667.916 492.603 667.974 492.687 668.023 492.777L672.89 491.802C673.868 491.027 674.736 490.122 675.471 489.114Z" fill="#F6F7F9"/>
<path d="M580.343 511.374C580.343 511.374 576.474 503.987 578.066 497.658C578.749 495.01 578.557 492.21 577.518 489.68C577.016 488.484 576.406 487.336 575.695 486.252" stroke="#F6F7F9" stroke-miterlimit="10"/>
<path d="M576.674 482.273C576.867 483.234 575.681 486.371 575.681 486.371C575.681 486.371 573.388 483.93 573.199 482.976C573.145 482.743 573.138 482.502 573.179 482.267C573.22 482.032 573.308 481.808 573.437 481.608C573.566 481.407 573.735 481.235 573.932 481.102C574.129 480.968 574.351 480.876 574.585 480.83C574.819 480.785 575.059 480.787 575.292 480.836C575.525 480.886 575.745 480.982 575.94 481.119C576.135 481.256 576.301 481.43 576.427 481.633C576.553 481.835 576.637 482.061 576.674 482.297V482.273Z" fill="#F6F7F9"/>
<path d="M580.607 487.026C580.248 487.939 577.559 489.928 577.559 489.928C577.559 489.928 576.959 486.629 577.322 485.715C577.404 485.495 577.53 485.293 577.692 485.121C577.854 484.95 578.048 484.813 578.263 484.718C578.478 484.622 578.71 484.571 578.945 484.566C579.181 484.562 579.414 484.604 579.633 484.691C579.852 484.778 580.051 484.908 580.219 485.073C580.387 485.238 580.521 485.435 580.612 485.652C580.703 485.87 580.75 486.103 580.751 486.339C580.751 486.575 580.705 486.808 580.614 487.026H580.607Z" fill="#F6F7F9"/>
<path d="M582.294 496.158C581.522 496.762 578.195 497.115 578.195 497.115C578.195 497.115 579.34 493.965 580.109 493.361C580.479 493.07 580.949 492.939 581.416 492.996C581.882 493.053 582.307 493.293 582.597 493.664C582.887 494.035 583.018 494.507 582.961 494.974C582.904 495.442 582.664 495.868 582.294 496.158Z" fill="#F6F7F9"/>
<path d="M582.016 503.355C581.359 504.082 578.141 504.995 578.141 504.995C578.141 504.995 578.733 501.695 579.394 500.969C579.544 500.777 579.732 500.619 579.946 500.504C580.16 500.389 580.395 500.319 580.637 500.298C580.879 500.278 581.122 500.307 581.352 500.385C581.582 500.463 581.794 500.587 581.974 500.75C582.154 500.914 582.298 501.112 582.399 501.334C582.499 501.555 582.553 501.795 582.557 502.039C582.561 502.282 582.515 502.523 582.422 502.748C582.329 502.973 582.19 503.176 582.016 503.345V503.355Z" fill="#F6F7F9"/>
<path d="M573.941 490.842C574.76 491.375 578.107 491.429 578.107 491.429C578.107 491.429 576.688 488.394 575.865 487.861C575.47 487.618 574.997 487.54 574.546 487.642C574.095 487.745 573.701 488.02 573.45 488.41C573.199 488.799 573.109 489.271 573.201 489.726C573.293 490.18 573.558 490.581 573.941 490.842Z" fill="#F6F7F9"/>
<path d="M573.724 499.264C574.666 499.526 577.874 498.585 577.874 498.585C577.874 498.585 575.614 496.114 574.669 495.849C574.445 495.787 574.211 495.77 573.979 495.798C573.748 495.827 573.525 495.901 573.323 496.016C573.12 496.131 572.942 496.285 572.799 496.469C572.656 496.653 572.55 496.863 572.488 497.088C572.426 497.313 572.409 497.548 572.437 497.78C572.466 498.011 572.54 498.235 572.654 498.438C572.769 498.641 572.923 498.819 573.106 498.963C573.29 499.106 573.5 499.212 573.724 499.274V499.264Z" fill="#F6F7F9"/>
<path d="M574.631 507.477C575.519 507.897 578.842 507.5 578.842 507.5C578.842 507.5 577.03 504.683 576.132 504.265C575.708 504.073 575.226 504.056 574.79 504.217C574.354 504.378 573.998 504.704 573.8 505.126C573.602 505.547 573.577 506.03 573.73 506.47C573.884 506.909 574.204 507.271 574.621 507.477H574.631Z" fill="#F6F7F9"/>
<path d="M593.12 494.647C593.12 494.647 594.207 495.608 593.286 497.567C592.365 499.526 591.609 501.176 592.243 502.157C592.243 502.157 593.516 498.606 595.054 498.253C596.592 497.9 595.203 496.216 593.12 494.647Z" fill="#F6F7F9"/>
<path opacity="0.1" d="M593.12 494.647C593.216 494.743 593.299 494.852 593.367 494.97C595.23 496.447 596.368 497.947 594.922 498.276C593.567 498.589 592.436 501.332 592.168 502.028C592.192 502.072 592.215 502.116 592.242 502.157C592.27 502.197 593.516 498.606 595.054 498.253C596.592 497.9 595.203 496.216 593.12 494.647Z" fill="black"/>
<path d="M595.01 495.757C595.091 496.155 595.108 496.487 595.054 496.497C595 496.508 594.892 496.195 594.81 495.795C594.729 495.394 594.81 495.574 594.881 495.564C594.953 495.554 594.932 495.37 595.01 495.757Z" fill="#F6F7F9"/>
<path d="M595.657 496.134C595.345 496.396 595.064 496.572 595.027 496.528C594.989 496.484 595.213 496.239 595.524 495.978C595.836 495.717 595.724 495.886 595.762 495.927C595.799 495.968 595.965 495.876 595.657 496.134Z" fill="#F6F7F9"/>
<path d="M588.561 495.56C588.561 495.56 587.924 496.864 589.523 498.321C591.122 499.777 592.453 501.009 592.233 502.157C592.233 502.157 589.699 499.366 588.141 499.631C586.583 499.896 587.236 497.794 588.561 495.56Z" fill="#F6F7F9"/>
<path opacity="0.1" d="M588.56 495.56C588.506 495.685 588.471 495.816 588.455 495.951C587.297 498.032 586.822 499.852 588.282 499.604C589.637 499.373 591.751 501.474 592.262 502.007C592.259 502.058 592.252 502.108 592.242 502.157C592.242 502.157 589.708 499.366 588.15 499.631C586.592 499.896 587.236 497.794 588.56 495.56Z" fill="black"/>
<path d="M587.242 497.322C587.32 497.72 587.432 498.035 587.486 498.022C587.541 498.008 587.52 497.682 587.442 497.282C587.364 496.881 587.344 497.081 587.29 497.095C587.236 497.109 587.165 496.925 587.242 497.322Z" fill="#F6F7F9"/>
<path d="M586.778 497.906C587.168 498.029 587.493 498.083 587.51 498.029C587.527 497.974 587.225 497.835 586.832 497.713C586.439 497.591 586.612 497.713 586.595 497.757C586.578 497.801 586.399 497.794 586.778 497.906Z" fill="#F6F7F9"/>
<path d="M580.857 513.525C586.075 512.482 590.162 510.919 589.986 510.035C589.81 509.15 585.437 509.279 580.22 510.322C575.002 511.365 570.915 512.927 571.091 513.812C571.267 514.696 575.64 514.568 580.857 513.525Z" fill="#F6F7F9"/>
<path d="M592.541 503.869C596.245 503.129 599.146 502.02 599.021 501.393C598.897 500.766 595.793 500.858 592.089 501.599C588.385 502.339 585.483 503.448 585.608 504.075C585.733 504.702 588.836 504.61 592.541 503.869Z" fill="#F6F7F9"/>
<path d="M627.904 497.61C630.443 497.103 632.432 496.343 632.346 495.912C632.26 495.482 630.133 495.545 627.594 496.052C625.054 496.56 623.066 497.32 623.151 497.75C623.237 498.181 625.365 498.118 627.904 497.61Z" fill="#F6F7F9"/>
<path d="M646.489 489.434C648.496 489.033 650.068 488.432 650 488.091C649.932 487.751 648.251 487.801 646.243 488.202C644.236 488.603 642.664 489.204 642.732 489.544C642.8 489.885 644.482 489.835 646.489 489.434Z" fill="#F6F7F9"/>
<path d="M610.793 507.06C614.498 506.32 617.399 505.211 617.274 504.584C617.15 503.957 614.046 504.049 610.342 504.79C606.638 505.53 603.736 506.639 603.861 507.266C603.985 507.893 607.089 507.801 610.793 507.06Z" fill="#F6F7F9"/>
<path d="M638.38 502.726C642.084 501.986 644.986 500.877 644.861 500.25C644.737 499.623 641.633 499.715 637.929 500.456C634.224 501.196 631.323 502.305 631.448 502.932C631.572 503.559 634.676 503.467 638.38 502.726Z" fill="#F6F7F9"/>
<path d="M679.183 455.161L664.4 458.116L665.078 461.519L679.86 458.564L679.183 455.161Z" fill="#F6F7F9"/>
<path d="M690.701 550.415L690.264 549.981C690.218 549.937 690.182 549.884 690.158 549.825C690.133 549.767 690.12 549.704 690.12 549.641C690.12 549.578 690.133 549.515 690.158 549.457C690.182 549.398 690.218 549.346 690.264 549.302L694.071 545.486C694.115 545.44 694.168 545.404 694.226 545.379C694.284 545.354 694.347 545.342 694.41 545.342C694.473 545.342 694.536 545.354 694.594 545.379C694.652 545.404 694.705 545.44 694.749 545.486L698.553 549.298C698.598 549.342 698.634 549.395 698.659 549.453C698.684 549.512 698.696 549.574 698.696 549.638C698.696 549.701 698.684 549.764 698.659 549.822C698.634 549.88 698.598 549.933 698.553 549.977L698.105 550.415C698.062 550.461 698.009 550.497 697.951 550.522C697.893 550.546 697.83 550.559 697.767 550.559C697.704 550.559 697.641 550.546 697.583 550.522C697.525 550.497 697.472 550.461 697.428 550.415L695.182 548.039V553.681C695.183 553.743 695.171 553.804 695.148 553.861C695.124 553.919 695.09 553.971 695.047 554.014C695.003 554.058 694.951 554.093 694.894 554.117C694.838 554.141 694.777 554.153 694.715 554.153H694.088C693.963 554.153 693.844 554.103 693.755 554.015C693.667 553.926 693.617 553.806 693.617 553.681V548.056L691.368 550.432C691.324 550.476 691.271 550.51 691.213 550.533C691.155 550.556 691.093 550.567 691.031 550.566C690.969 550.564 690.907 550.55 690.851 550.524C690.794 550.498 690.743 550.461 690.701 550.415Z" fill="#F6F7F9"/>
<path d="M694.403 542.033C695.93 542.032 697.424 542.486 698.694 543.336C699.965 544.186 700.955 545.395 701.54 546.809C702.125 548.223 702.279 549.78 701.981 551.281C701.684 552.783 700.948 554.163 699.868 555.246C698.788 556.328 697.412 557.066 695.914 557.365C694.416 557.664 692.863 557.511 691.451 556.925C690.04 556.339 688.834 555.347 687.985 554.074C687.136 552.801 686.683 551.305 686.683 549.773C686.685 547.722 687.499 545.755 688.946 544.303C690.393 542.852 692.356 542.036 694.403 542.033ZM694.403 541.015C692.674 541.014 690.984 541.527 689.547 542.489C688.109 543.451 686.988 544.819 686.326 546.419C685.664 548.02 685.491 549.781 685.828 551.48C686.164 553.179 686.997 554.74 688.219 555.966C689.441 557.191 690.998 558.025 692.693 558.364C694.389 558.702 696.146 558.529 697.743 557.866C699.34 557.203 700.705 556.08 701.666 554.64C702.626 553.2 703.139 551.506 703.139 549.773C703.139 548.623 702.913 547.485 702.475 546.422C702.036 545.359 701.392 544.394 700.581 543.58C699.77 542.767 698.807 542.122 697.747 541.681C696.686 541.241 695.55 541.015 694.403 541.015Z" fill="#F6F7F9"/>
<path d="M690.701 613.221L690.264 612.786C690.218 612.742 690.182 612.689 690.158 612.631C690.133 612.573 690.12 612.51 690.12 612.447C690.12 612.383 690.133 612.32 690.158 612.262C690.182 612.204 690.218 612.151 690.264 612.107L694.071 608.291C694.115 608.246 694.168 608.209 694.226 608.185C694.284 608.16 694.347 608.147 694.41 608.147C694.473 608.147 694.536 608.16 694.594 608.185C694.652 608.209 694.705 608.246 694.749 608.291L698.553 612.104C698.598 612.148 698.634 612.2 698.659 612.259C698.684 612.317 698.696 612.38 698.696 612.443C698.696 612.507 698.684 612.569 698.659 612.628C698.634 612.686 698.598 612.739 698.553 612.783L698.105 613.221C698.061 613.266 698.009 613.302 697.95 613.326C697.892 613.351 697.83 613.363 697.767 613.363C697.704 613.363 697.641 613.351 697.583 613.326C697.525 613.302 697.472 613.266 697.428 613.221L695.172 610.844V616.486C695.172 616.612 695.123 616.732 695.034 616.82C694.946 616.909 694.826 616.958 694.701 616.958H694.088C694.026 616.958 693.965 616.946 693.909 616.922C693.852 616.899 693.8 616.864 693.756 616.82C693.713 616.776 693.679 616.724 693.655 616.667C693.632 616.61 693.62 616.548 693.621 616.486V610.844L691.372 613.221C691.328 613.266 691.276 613.302 691.219 613.327C691.161 613.351 691.099 613.364 691.036 613.364C690.974 613.364 690.912 613.351 690.854 613.327C690.796 613.302 690.744 613.266 690.701 613.221Z" fill="#F6F7F9"/>
<path d="M694.403 604.835C695.931 604.835 697.424 605.288 698.695 606.138C699.965 606.989 700.956 608.197 701.541 609.612C702.126 611.026 702.279 612.583 701.981 614.085C701.683 615.587 700.947 616.966 699.867 618.049C698.787 619.132 697.41 619.869 695.912 620.167C694.414 620.466 692.86 620.312 691.449 619.726C690.038 619.14 688.832 618.147 687.983 616.874C687.135 615.6 686.682 614.103 686.683 612.572C686.686 610.521 687.5 608.555 688.947 607.104C690.394 605.654 692.356 604.838 694.403 604.835ZM694.403 603.817C692.674 603.816 690.984 604.329 689.546 605.291C688.109 606.254 686.988 607.622 686.326 609.222C685.664 610.823 685.491 612.584 685.828 614.284C686.165 615.983 686.997 617.544 688.22 618.769C689.442 619.994 691 620.828 692.695 621.166C694.391 621.504 696.148 621.33 697.745 620.667C699.342 620.004 700.707 618.881 701.667 617.44C702.627 615.999 703.139 614.305 703.139 612.572C703.139 610.25 702.218 608.023 700.58 606.381C698.942 604.739 696.72 603.817 694.403 603.817Z" fill="#F6F7F9"/>
<path d="M828.55 628.406C828.55 628.406 830.968 631.573 827.435 636.353C823.902 641.133 820.999 645.18 822.168 648.154C822.168 648.154 827.496 639.273 831.835 639.151C836.175 639.029 833.322 633.746 828.55 628.406Z" fill="#5D2C8F"/>
<path opacity="0.1" d="M828.55 628.406C828.762 628.711 828.928 629.045 829.045 629.397C833.279 634.381 835.532 639.032 831.463 639.151C827.673 639.259 823.127 646.049 822.04 647.764C822.074 647.897 822.117 648.027 822.169 648.154C822.169 648.154 827.497 639.273 831.836 639.151C836.175 639.029 833.323 633.746 828.55 628.406Z" fill="black"/>
<path d="M833.034 632.443C833.034 633.556 832.909 634.459 832.753 634.459C832.598 634.459 832.476 633.556 832.476 632.443C832.476 631.329 832.631 631.852 832.784 631.852C832.936 631.852 833.034 631.326 833.034 632.443Z" fill="#FFD037"/>
<path d="M834.587 633.773C833.608 634.306 832.757 634.629 832.683 634.493C832.608 634.357 833.36 633.814 834.319 633.281C835.278 632.748 834.912 633.138 834.996 633.281C835.081 633.424 835.562 633.251 834.587 633.773Z" fill="#FFD037"/>
<path d="M815.784 628.406C815.784 628.406 813.368 631.573 816.901 636.353C820.434 641.133 823.337 645.18 822.169 648.154C822.169 648.154 816.84 639.273 812.501 639.151C808.162 639.029 811.018 633.746 815.784 628.406Z" fill="#5D2C8F"/>
<path opacity="0.1" d="M815.784 628.406C815.575 628.712 815.409 629.045 815.292 629.397C811.058 634.381 808.806 639.032 812.874 639.151C816.661 639.259 821.21 646.049 822.297 647.764C822.262 647.896 822.219 648.026 822.169 648.154C822.169 648.154 816.84 639.273 812.501 639.151C808.162 639.029 811.018 633.746 815.784 628.406Z" fill="black"/>
<path d="M811.292 632.443C811.292 633.556 811.417 634.459 811.57 634.459C811.722 634.459 811.851 633.556 811.851 632.443C811.851 631.329 811.695 631.852 811.539 631.852C811.383 631.852 811.292 631.326 811.292 632.443Z" fill="#FFD037"/>
<path d="M809.75 633.773C810.726 634.306 811.58 634.629 811.651 634.493C811.722 634.357 810.994 633.814 810.018 633.281C809.042 632.748 809.425 633.138 809.341 633.281C809.256 633.424 808.775 633.251 809.75 633.773Z" fill="#FFD037"/>
<path opacity="0.1" d="M822.169 672.387C836.124 672.387 847.438 670.646 847.438 668.5C847.438 666.353 836.124 664.613 822.169 664.613C808.213 664.613 796.899 666.353 796.899 668.5C796.899 670.646 808.213 672.387 822.169 672.387Z" fill="#5D2C8F"/>
<path d="M835.176 643.887L835.054 644.875L834.884 646.273L834.813 646.854L834.644 648.253L834.569 648.836L834.39 650.225L832.456 666.113C832.283 667.532 829.973 668.635 827.182 668.635H817.135C814.344 668.635 812.034 667.532 811.861 666.113L809.937 650.225L809.764 648.83L809.696 648.246L809.524 646.847L809.453 646.267L809.283 644.868L809.161 643.88C809.066 643.079 810.316 642.4 811.895 642.4H832.446C834.021 642.417 835.274 643.096 835.176 643.887Z" fill="#65617D"/>
<path d="M835.054 644.875L834.884 646.27H809.453L809.283 644.875H835.054Z" fill="#9D9CB5"/>
<path d="M834.813 646.854L834.644 648.253H809.696L809.523 646.854H834.813Z" fill="#9D9CB5"/>
<path d="M834.569 648.833L834.4 650.232H809.937L809.768 648.833H834.569Z" fill="#9D9CB5"/>
</g>
<defs>
<linearGradient id="paint0_linear" x1="434.099" y1="438.209" x2="739" y2="112" gradientUnits="userSpaceOnUse">
<stop stop-color="#2786D4"/>
<stop offset="1" stop-color="#5D2C8F" stop-opacity="0.79"/>
</linearGradient>
<linearGradient id="paint1_linear" x1="694.403" y1="652.496" x2="694.403" y2="413" gradientUnits="userSpaceOnUse">
<stop stop-color="#808080" stop-opacity="0.25"/>
<stop offset="0.54" stop-color="#808080" stop-opacity="0.12"/>
<stop offset="1" stop-color="#808080" stop-opacity="0.1"/>
</linearGradient>
<linearGradient id="paint2_linear" x1="-87327.5" y1="142324" x2="-87327.5" y2="53998.2" gradientUnits="userSpaceOnUse">
<stop stop-color="#808080" stop-opacity="0.25"/>
<stop offset="0.54" stop-color="#808080" stop-opacity="0.12"/>
<stop offset="1" stop-color="#808080" stop-opacity="0.1"/>
</linearGradient>
<clipPath id="clip0">
<rect width="344" height="266" fill="white" transform="translate(513 413)"/>
</clipPath>
</defs>
</svg>
